<svg xmlns="http://www.w3.org/2000/svg" version="1.1" xmlns:xlink="http://www.w3.org/1999/xlink" xmlns:svgjs="http://svgjs.dev/svgjs" width="1500" height="1500" viewBox="0 0 1500 1500"><rect width="1500" height="1500" fill="#ffffff"></rect><g transform="matrix(0.6666666666666666,0,0,0.6666666666666666,250.10666666666668,427.95244)"><svg viewBox="0 0 375 242" data-background-color="#575c5f" preserveAspectRatio="xMidYMid meet" height="968" width="1500" xmlns="http://www.w3.org/2000/svg" xmlns:xlink="http://www.w3.org/1999/xlink"><g id="tight-bounds" transform="matrix(1,0,0,1,-0.03976000000000113,-0.23216500000000906)"><svg viewBox="0 0 375.07953 242.46433000000002" height="242.46433000000002" width="375.07953"><g><svg></svg></g><g><svg viewBox="0 0 375.07953 242.46433000000002" height="242.46433000000002" width="375.07953"><g transform="matrix(1,0,0,1,-10.22024,-4.735629999999986)"><path d="M10.22 242.464v-237.728h375.08v237.728h-31.624l0-2.831h28.793v-232.066h-369.418v232.066l28.793 0 0 2.831z" fill="#000000" fill-rule="nonzero" stroke="none" stroke-width="1" stroke-linecap="butt" stroke-linejoin="miter" stroke-miterlimit="10" stroke-dasharray="" stroke-dashoffset="0" font-family="none" font-weight="none" font-size="none" text-anchor="none" style="mix-blend-mode: normal" data-fill-palette-color="tertiary"></path><g><path transform="translate(49.17518,244.46616) scale(0.27338,0.27338)" d="M8.25-17.8h8.35c1.867 0 3.383-0.283 4.55-0.85 1.167-0.567 2.027-1.367 2.58-2.4 0.547-1.033 0.82-2.233 0.82-3.6v0c0-2.167-0.623-3.85-1.87-5.05-1.253-1.2-3.28-1.8-6.08-1.8v0h-8.35zM28.5-24.65v0c0 1.367-0.223 2.673-0.67 3.92-0.453 1.253-1.163 2.363-2.13 3.33-0.967 0.967-2.2 1.723-3.7 2.27-1.5 0.553-3.3 0.83-5.4 0.83v0h-8.35v14.3h-4v-35h12.35c2.733 0 4.977 0.467 6.73 1.4 1.747 0.933 3.047 2.183 3.9 3.75 0.847 1.567 1.27 3.3 1.27 5.2zM35.2 0v-25h3.7v25zM37.1-30v0c-0.767 0-1.4-0.25-1.9-0.75-0.5-0.5-0.75-1.117-0.75-1.85v0c0-0.767 0.25-1.4 0.75-1.9 0.5-0.5 1.133-0.75 1.9-0.75v0c0.7 0 1.31 0.25 1.83 0.75 0.513 0.5 0.77 1.133 0.77 1.9v0c0 0.733-0.257 1.35-0.77 1.85-0.52 0.5-1.13 0.75-1.83 0.75zM58.15 0.35v0c-2.367 0-4.483-0.517-6.35-1.55-1.867-1.033-3.333-2.51-4.4-4.43-1.067-1.913-1.6-4.187-1.6-6.82v0c0-2.667 0.54-4.967 1.62-6.9 1.087-1.933 2.573-3.417 4.46-4.45 1.88-1.033 4.003-1.55 6.37-1.55v0c2.367 0 4.493 0.517 6.38 1.55 1.88 1.033 3.363 2.507 4.45 4.42 1.08 1.92 1.62 4.197 1.62 6.83v0c0 2.667-0.55 4.967-1.65 6.9-1.1 1.933-2.6 3.417-4.5 4.45-1.9 1.033-4.033 1.55-6.4 1.55zM58.1-3.2v0c1.467 0 2.85-0.323 4.15-0.97 1.3-0.653 2.357-1.673 3.17-3.06 0.82-1.38 1.23-3.137 1.23-5.27v0c0-2.167-0.4-3.933-1.2-5.3-0.8-1.367-1.84-2.377-3.12-3.03-1.287-0.647-2.663-0.97-4.13-0.97v0c-1.467 0-2.833 0.323-4.1 0.97-1.267 0.653-2.293 1.67-3.08 3.05-0.78 1.387-1.17 3.147-1.17 5.28v0c0 2.167 0.383 3.933 1.15 5.3 0.767 1.367 1.773 2.377 3.02 3.03 1.253 0.647 2.613 0.97 4.08 0.97zM76.85 0v-25h3.45l0.2 3.55c0.8-1.233 1.85-2.193 3.15-2.88 1.3-0.68 2.817-1.02 4.55-1.02v0c1.9 0 3.567 0.407 5 1.22 1.433 0.82 2.55 2.037 3.35 3.65 0.8 1.62 1.2 3.647 1.2 6.08v0 14.4h-3.75v-13.95c0-2.6-0.557-4.577-1.67-5.93-1.12-1.347-2.73-2.02-4.83-2.02v0c-2.167 0-3.86 0.717-5.08 2.15-1.213 1.433-1.82 3.55-1.82 6.35v0 13.4zM115.5 0.35v0c-2.333 0-4.407-0.567-6.22-1.7-1.82-1.133-3.247-2.683-4.28-4.65-1.033-1.967-1.55-4.217-1.55-6.75v0c0-2.433 0.517-4.6 1.55-6.5 1.033-1.9 2.45-3.393 4.25-4.48 1.8-1.08 3.85-1.62 6.15-1.62v0c2.267 0 4.293 0.5 6.08 1.5 1.78 1 3.17 2.383 4.17 4.15 1 1.767 1.467 3.783 1.4 6.05v0c0 0.367-0.017 0.75-0.05 1.15-0.033 0.4-0.067 0.833-0.1 1.3v0h-19.35c0.067 1.567 0.45 2.95 1.15 4.15 0.7 1.2 1.627 2.14 2.78 2.82 1.147 0.687 2.453 1.03 3.92 1.03v0c1.933 0 3.577-0.367 4.93-1.1 1.347-0.733 2.32-1.783 2.92-3.15v0l3.25 1.3c-1 2.1-2.45 3.707-4.35 4.82-1.9 1.12-4.117 1.68-6.65 1.68zM107.6-14.45h15.35c0.033-1.433-0.273-2.7-0.92-3.8-0.653-1.1-1.563-1.967-2.73-2.6-1.167-0.633-2.517-0.95-4.05-0.95v0c-1.333 0-2.55 0.317-3.65 0.95-1.1 0.633-2.007 1.507-2.72 2.62-0.72 1.12-1.147 2.38-1.28 3.78zM143.7 0.35v0c-2.333 0-4.407-0.567-6.22-1.7-1.82-1.133-3.247-2.683-4.28-4.65-1.033-1.967-1.55-4.217-1.55-6.75v0c0-2.433 0.517-4.6 1.55-6.5 1.033-1.9 2.45-3.393 4.25-4.48 1.8-1.08 3.85-1.62 6.15-1.62v0c2.267 0 4.293 0.5 6.08 1.5 1.78 1 3.17 2.383 4.17 4.15 1 1.767 1.467 3.783 1.4 6.05v0c0 0.367-0.017 0.75-0.05 1.15-0.033 0.4-0.067 0.833-0.1 1.3v0h-19.35c0.067 1.567 0.45 2.95 1.15 4.15 0.7 1.2 1.627 2.14 2.78 2.82 1.147 0.687 2.453 1.03 3.92 1.03v0c1.933 0 3.577-0.367 4.93-1.1 1.347-0.733 2.32-1.783 2.92-3.15v0l3.25 1.3c-1 2.1-2.45 3.707-4.35 4.82-1.9 1.12-4.117 1.68-6.65 1.68zM135.8-14.45h15.35c0.033-1.433-0.273-2.7-0.92-3.8-0.653-1.1-1.563-1.967-2.73-2.6-1.167-0.633-2.517-0.95-4.05-0.95v0c-1.333 0-2.55 0.317-3.65 0.95-1.1 0.633-2.007 1.507-2.72 2.62-0.72 1.12-1.147 2.38-1.28 3.78zM161.4 0v-25h3.45l0.2 3.65c0.667-0.9 1.477-1.667 2.43-2.3 0.947-0.633 1.997-1.077 3.15-1.33 1.147-0.247 2.37-0.253 3.67-0.02v0 3.75c-1.4-0.267-2.657-0.267-3.77 0-1.12 0.267-2.08 0.767-2.88 1.5-0.8 0.733-1.417 1.657-1.85 2.77-0.433 1.12-0.65 2.413-0.65 3.88v0 13.1zM180.15 0v-25h3.7v25zM182.05-30v0c-0.767 0-1.4-0.25-1.9-0.75-0.5-0.5-0.75-1.117-0.75-1.85v0c0-0.767 0.25-1.4 0.75-1.9 0.5-0.5 1.133-0.75 1.9-0.75v0c0.7 0 1.31 0.25 1.83 0.75 0.513 0.5 0.77 1.133 0.77 1.9v0c0 0.733-0.257 1.35-0.77 1.85-0.52 0.5-1.13 0.75-1.83 0.75zM192.3 0v-25h3.45l0.2 3.55c0.8-1.233 1.85-2.193 3.15-2.88 1.3-0.68 2.817-1.02 4.55-1.02v0c1.9 0 3.567 0.407 5 1.22 1.433 0.82 2.55 2.037 3.35 3.65 0.8 1.62 1.2 3.647 1.2 6.08v0 14.4h-3.75v-13.95c0-2.6-0.557-4.577-1.67-5.93-1.12-1.347-2.73-2.02-4.83-2.02v0c-2.167 0-3.857 0.717-5.07 2.15-1.22 1.433-1.83 3.55-1.83 6.35v0 13.4zM239.4-20.35l0.25-4.65h3.45v20.4c0 3.067-0.683 5.693-2.05 7.88-1.367 2.18-3.35 3.847-5.95 5-2.6 1.147-5.767 1.72-9.5 1.72v0l-0.6-3.45c4.7-0.067 8.267-1.04 10.7-2.92 2.433-1.887 3.65-4.63 3.65-8.23v0-0.55l0.4 0.1c-0.767 1.467-1.917 2.723-3.45 3.77-1.533 1.053-3.517 1.597-5.95 1.63v0c-2.3 0-4.307-0.527-6.02-1.58-1.72-1.047-3.053-2.537-4-4.47-0.953-1.933-1.43-4.2-1.43-6.8v0c0-2.6 0.477-4.86 1.43-6.78 0.947-1.913 2.28-3.403 4-4.47 1.713-1.067 3.72-1.6 6.02-1.6v0c1.5 0 2.833 0.223 4 0.67 1.167 0.453 2.167 1.053 3 1.8 0.833 0.753 1.517 1.597 2.05 2.53zM222.95-12.5v0c0 2.867 0.743 5.14 2.23 6.82 1.48 1.687 3.487 2.53 6.02 2.53v0c1.533 0 2.917-0.367 4.15-1.1 1.233-0.733 2.21-1.8 2.93-3.2 0.713-1.4 1.07-3.083 1.07-5.05v0c0-1.967-0.357-3.643-1.07-5.03-0.72-1.38-1.697-2.447-2.93-3.2-1.233-0.747-2.617-1.12-4.15-1.12v0c-2.5 0-4.5 0.85-6 2.55-1.5 1.7-2.25 3.967-2.25 6.8zM263.45-7.45l3.65-1.45c0.2 0.9 0.627 1.79 1.28 2.67 0.647 0.887 1.547 1.62 2.7 2.2 1.147 0.587 2.62 0.88 4.42 0.88v0c2.567 0 4.467-0.6 5.7-1.8 1.233-1.2 1.85-2.617 1.85-4.25v0c0-1.3-0.35-2.367-1.05-3.2-0.7-0.833-1.65-1.527-2.85-2.08-1.2-0.547-2.55-1.037-4.05-1.47v0c-1.333-0.367-2.657-0.777-3.97-1.23-1.32-0.447-2.513-1.013-3.58-1.7-1.067-0.68-1.917-1.57-2.55-2.67-0.633-1.1-0.95-2.467-0.95-4.1v0c0-1.967 0.467-3.677 1.4-5.13 0.933-1.447 2.25-2.57 3.95-3.37 1.7-0.8 3.683-1.2 5.95-1.2v0c1.967 0 3.683 0.283 5.15 0.85 1.467 0.567 2.693 1.357 3.68 2.37 0.98 1.02 1.703 2.197 2.17 3.53v0l-3.55 1.35c-0.233-0.767-0.683-1.51-1.35-2.23-0.667-0.713-1.533-1.303-2.6-1.77-1.067-0.467-2.283-0.7-3.65-0.7v0c-1.333 0-2.54 0.233-3.62 0.7-1.087 0.467-1.947 1.133-2.58 2-0.633 0.867-0.95 1.917-0.95 3.15v0c0 1.333 0.377 2.39 1.13 3.17 0.747 0.787 1.747 1.42 3 1.9 1.247 0.487 2.62 0.947 4.12 1.38v0c1.367 0.433 2.693 0.9 3.98 1.4 1.28 0.5 2.43 1.117 3.45 1.85 1.013 0.733 1.82 1.65 2.42 2.75 0.6 1.1 0.9 2.45 0.9 4.05v0c0 1.767-0.417 3.41-1.25 4.93-0.833 1.513-2.09 2.727-3.77 3.64-1.687 0.92-3.847 1.38-6.48 1.38v0c-2.2 0-4.133-0.343-5.8-1.03-1.667-0.68-3.033-1.603-4.1-2.77-1.067-1.167-1.8-2.5-2.2-4zM313.9-25v25h-3.4l-0.25-3.6c-0.767 1.267-1.8 2.24-3.1 2.92-1.3 0.687-2.817 1.03-4.55 1.03v0c-1.933 0-3.617-0.4-5.05-1.2-1.433-0.8-2.54-2-3.32-3.6-0.787-1.6-1.18-3.617-1.18-6.05v0-14.5h3.7v14.1c0 2.567 0.56 4.507 1.68 5.82 1.113 1.32 2.72 1.98 4.82 1.98v0c2.133 0 3.827-0.693 5.08-2.08 1.247-1.38 1.87-3.47 1.87-6.27v0-13.55zM320-6.45l3.6-1.2c0.2 1 0.567 1.823 1.1 2.47 0.533 0.653 1.227 1.147 2.08 1.48 0.847 0.333 1.837 0.5 2.97 0.5v0c1.767 0 3.11-0.343 4.03-1.03 0.913-0.68 1.37-1.537 1.37-2.57v0c0-0.867-0.273-1.567-0.82-2.1-0.553-0.533-1.28-0.977-2.18-1.33-0.9-0.347-1.9-0.653-3-0.92v0c-0.867-0.2-1.8-0.443-2.8-0.73-1-0.28-1.95-0.67-2.85-1.17-0.9-0.5-1.633-1.15-2.2-1.95-0.567-0.8-0.85-1.85-0.85-3.15v0c0-1.433 0.393-2.693 1.18-3.78 0.78-1.08 1.863-1.92 3.25-2.52 1.38-0.6 2.97-0.9 4.77-0.9v0c2.067 0 3.91 0.45 5.53 1.35 1.613 0.9 2.737 2.3 3.37 4.2v0l-3.5 1.2c-0.233-0.867-0.657-1.533-1.27-2-0.62-0.467-1.303-0.783-2.05-0.95-0.753-0.167-1.497-0.25-2.23-0.25v0c-1.5 0-2.707 0.29-3.62 0.87-0.92 0.587-1.38 1.463-1.38 2.63v0c0 0.633 0.15 1.157 0.45 1.57 0.3 0.42 0.717 0.763 1.25 1.03 0.533 0.267 1.167 0.49 1.9 0.67 0.733 0.187 1.533 0.397 2.4 0.63v0c0.967 0.233 1.95 0.523 2.95 0.87 1 0.353 1.933 0.803 2.8 1.35 0.867 0.553 1.577 1.253 2.13 2.1 0.547 0.853 0.82 1.913 0.82 3.18v0c0 1.467-0.4 2.74-1.2 3.82-0.8 1.087-1.907 1.93-3.32 2.53-1.42 0.6-3.063 0.9-4.93 0.9v0c-2.567 0-4.69-0.577-6.37-1.73-1.687-1.147-2.813-2.837-3.38-5.07zM343.15-25h3.75v-7h3.75v7h6.65v3.5h-6.65v13.45c0 1.533 0.327 2.65 0.98 3.35 0.647 0.7 1.48 1.117 2.5 1.25 1.013 0.133 2.07 0.133 3.17 0v0 3.25c-1.3 0.3-2.573 0.383-3.82 0.25-1.253-0.133-2.37-0.507-3.35-1.12-0.987-0.62-1.77-1.497-2.35-2.63-0.587-1.133-0.88-2.583-0.88-4.35v0-13.45h-3.75zM382 0h-3.45l-0.3-4.5c-0.7 1.533-1.733 2.723-3.1 3.57-1.367 0.853-3.1 1.28-5.2 1.28v0c-1.8 0-3.333-0.283-4.6-0.85-1.267-0.567-2.24-1.377-2.92-2.43-0.687-1.047-1.03-2.287-1.03-3.72v0c0-2.1 0.783-3.827 2.35-5.18 1.567-1.347 3.833-2.17 6.8-2.47v0l7.7-0.85v-2c0-1.4-0.517-2.527-1.55-3.38-1.033-0.847-2.433-1.27-4.2-1.27v0c-1.733 0-3.173 0.4-4.32 1.2-1.153 0.8-1.947 1.95-2.38 3.45v0l-3.4-1.2c0.667-2.2 1.893-3.917 3.68-5.15 1.78-1.233 3.953-1.85 6.52-1.85v0c2.967 0 5.277 0.757 6.93 2.27 1.647 1.52 2.47 3.58 2.47 6.18v0zM378.25-11.15v-0.8l-7.75 0.9c-1.667 0.2-2.933 0.657-3.8 1.37-0.867 0.72-1.3 1.663-1.3 2.83v0c0 1.167 0.427 2.1 1.28 2.8 0.847 0.7 2.07 1.05 3.67 1.05v0c1.833 0 3.333-0.367 4.5-1.1 1.167-0.733 2.027-1.727 2.58-2.98 0.547-1.247 0.82-2.603 0.82-4.07zM390.05 0v-25h3.7v25zM391.95-30v0c-0.767 0-1.4-0.25-1.9-0.75-0.5-0.5-0.75-1.117-0.75-1.85v0c0-0.767 0.25-1.4 0.75-1.9 0.5-0.5 1.133-0.75 1.9-0.75v0c0.7 0 1.31 0.25 1.83 0.75 0.513 0.5 0.77 1.133 0.77 1.9v0c0 0.733-0.257 1.35-0.77 1.85-0.52 0.5-1.13 0.75-1.83 0.75zM402.2 0v-25h3.45l0.2 3.55c0.8-1.233 1.85-2.193 3.15-2.88 1.3-0.68 2.817-1.02 4.55-1.02v0c1.9 0 3.567 0.407 5 1.22 1.433 0.82 2.55 2.037 3.35 3.65 0.8 1.62 1.2 3.647 1.2 6.08v0 14.4h-3.75v-13.95c0-2.6-0.557-4.577-1.67-5.93-1.12-1.347-2.73-2.02-4.83-2.02v0c-2.167 0-3.857 0.717-5.07 2.15-1.22 1.433-1.83 3.55-1.83 6.35v0 13.4zM449.45 0h-3.45l-0.3-4.5c-0.7 1.533-1.733 2.723-3.1 3.57-1.367 0.853-3.1 1.28-5.2 1.28v0c-1.8 0-3.333-0.283-4.6-0.85-1.267-0.567-2.24-1.377-2.92-2.43-0.687-1.047-1.03-2.287-1.03-3.72v0c0-2.1 0.783-3.827 2.35-5.18 1.567-1.347 3.833-2.17 6.8-2.47v0l7.7-0.85v-2c0-1.4-0.517-2.527-1.55-3.38-1.033-0.847-2.433-1.27-4.2-1.27v0c-1.733 0-3.173 0.4-4.32 1.2-1.153 0.8-1.947 1.95-2.38 3.45v0l-3.4-1.2c0.667-2.2 1.89-3.917 3.67-5.15 1.787-1.233 3.963-1.85 6.53-1.85v0c2.967 0 5.277 0.757 6.93 2.27 1.647 1.52 2.47 3.58 2.47 6.18v0zM445.7-11.15v-0.8l-7.75 0.9c-1.667 0.2-2.933 0.657-3.8 1.37-0.867 0.72-1.3 1.663-1.3 2.83v0c0 1.167 0.427 2.1 1.28 2.8 0.847 0.7 2.07 1.05 3.67 1.05v0c1.833 0 3.333-0.367 4.5-1.1 1.167-0.733 2.027-1.727 2.58-2.98 0.547-1.247 0.82-2.603 0.82-4.07zM460.5-19.9l-0.4-0.05c0.733-1.533 1.883-2.817 3.45-3.85 1.567-1.033 3.55-1.55 5.95-1.55v0c2.3 0 4.307 0.533 6.02 1.6 1.72 1.067 3.053 2.557 4 4.47 0.953 1.92 1.43 4.18 1.43 6.78v0c0 2.6-0.483 4.867-1.45 6.8-0.967 1.933-2.31 3.423-4.03 4.47-1.713 1.053-3.703 1.58-5.97 1.58v0c-2.267 0-4.15-0.483-5.65-1.45-1.5-0.967-2.633-2.15-3.4-3.55v0l-0.25 4.65h-3.45v-36h3.75zM476.9-12.5v0c0-2.867-0.743-5.143-2.23-6.83-1.48-1.68-3.47-2.52-5.97-2.52v0c-1.567 0-2.977 0.373-4.23 1.12-1.247 0.753-2.22 1.82-2.92 3.2-0.7 1.387-1.05 3.063-1.05 5.03v0c0 1.967 0.35 3.65 1.05 5.05 0.7 1.4 1.673 2.467 2.92 3.2 1.253 0.733 2.663 1.1 4.23 1.1v0c2.5 0 4.49-0.843 5.97-2.53 1.487-1.68 2.23-3.953 2.23-6.82zM487.8 0v-25h3.7v25zM489.7-30v0c-0.767 0-1.4-0.25-1.9-0.75-0.5-0.5-0.75-1.117-0.75-1.85v0c0-0.767 0.25-1.4 0.75-1.9 0.5-0.5 1.133-0.75 1.9-0.75v0c0.7 0 1.307 0.25 1.82 0.75 0.52 0.5 0.78 1.133 0.78 1.9v0c0 0.733-0.26 1.35-0.78 1.85-0.513 0.5-1.12 0.75-1.82 0.75zM499.95 0v-36h3.75v36zM512.1 0v-25h3.7v25zM514-30v0c-0.767 0-1.4-0.25-1.9-0.75-0.5-0.5-0.75-1.117-0.75-1.85v0c0-0.767 0.25-1.4 0.75-1.9 0.5-0.5 1.133-0.75 1.9-0.75v0c0.7 0 1.307 0.25 1.82 0.75 0.52 0.5 0.78 1.133 0.78 1.9v0c0 0.733-0.26 1.35-0.78 1.85-0.513 0.5-1.12 0.75-1.82 0.75zM522.1-25h3.75v-7h3.75v7h6.65v3.5h-6.65v13.45c0 1.533 0.323 2.65 0.97 3.35 0.653 0.7 1.487 1.117 2.5 1.25 1.02 0.133 2.08 0.133 3.18 0v0 3.25c-1.3 0.3-2.577 0.383-3.83 0.25-1.247-0.133-2.363-0.507-3.35-1.12-0.98-0.62-1.76-1.497-2.34-2.63-0.587-1.133-0.88-2.583-0.88-4.35v0-13.45h-3.75zM551.05-4.8l7.75-20.2h3.9l-14.3 35h-3.6l4.25-10.35-10.1-24.65h4.1zM563.55 7.25l3.7-13.3h4.4l-5.4 13.3zM591-17.5v0c0-2.633 0.433-5.043 1.3-7.23 0.867-2.18 2.093-4.063 3.68-5.65 1.58-1.58 3.413-2.803 5.5-3.67 2.08-0.867 4.353-1.3 6.82-1.3v0c3.6 0 6.757 0.833 9.47 2.5 2.72 1.667 4.78 4.033 6.18 7.1v0l-3.25 1.2c-0.767-1.633-1.783-2.977-3.05-4.03-1.267-1.047-2.7-1.837-4.3-2.37-1.6-0.533-3.283-0.8-5.05-0.8v0c-2.5 0-4.75 0.567-6.75 1.7-2 1.133-3.573 2.767-4.72 4.9-1.153 2.133-1.73 4.683-1.73 7.65v0c0 2.933 0.577 5.467 1.73 7.6 1.147 2.133 2.72 3.773 4.72 4.92 2 1.153 4.25 1.73 6.75 1.73v0c1.8 0 3.517-0.283 5.15-0.85 1.633-0.567 3.11-1.45 4.43-2.65 1.313-1.2 2.37-2.7 3.17-4.5v0l3.25 1.2c-1.433 3.433-3.533 6.027-6.3 7.78-2.767 1.747-6 2.62-9.7 2.62v0c-2.467 0-4.74-0.433-6.82-1.3-2.087-0.867-3.92-2.1-5.5-3.7-1.587-1.6-2.813-3.493-3.68-5.68-0.867-2.18-1.3-4.57-1.3-7.17zM651.4-25v25h-3.4l-0.25-3.6c-0.767 1.267-1.8 2.24-3.1 2.92-1.3 0.687-2.817 1.03-4.55 1.03v0c-1.933 0-3.617-0.4-5.05-1.2-1.433-0.8-2.54-2-3.32-3.6-0.787-1.6-1.18-3.617-1.18-6.05v0-14.5h3.7v14.1c0 2.567 0.56 4.507 1.68 5.82 1.113 1.32 2.72 1.98 4.82 1.98v0c2.133 0 3.827-0.693 5.08-2.08 1.247-1.38 1.87-3.47 1.87-6.27v0-13.55zM659.05 0v-36h3.75v36zM668.3-25h3.75v-7h3.75v7h6.65v3.5h-6.65v13.45c0 1.533 0.323 2.65 0.97 3.35 0.653 0.7 1.487 1.117 2.5 1.25 1.02 0.133 2.08 0.133 3.18 0v0 3.25c-1.3 0.3-2.573 0.383-3.82 0.25-1.253-0.133-2.373-0.507-3.36-1.12-0.98-0.62-1.76-1.497-2.34-2.63-0.587-1.133-0.88-2.583-0.88-4.35v0-13.45h-3.75zM688.8 0v-25h3.7v25zM690.7-30v0c-0.767 0-1.4-0.25-1.9-0.75-0.5-0.5-0.75-1.117-0.75-1.85v0c0-0.767 0.25-1.4 0.75-1.9 0.5-0.5 1.133-0.75 1.9-0.75v0c0.7 0 1.31 0.25 1.83 0.75 0.513 0.5 0.77 1.133 0.77 1.9v0c0 0.733-0.257 1.35-0.77 1.85-0.52 0.5-1.13 0.75-1.83 0.75zM698.4-25h4l7.9 20.8 7.95-20.8h3.95l-10 25h-3.9zM745.9 0h-3.45l-0.3-4.5c-0.7 1.533-1.733 2.723-3.1 3.57-1.367 0.853-3.1 1.28-5.2 1.28v0c-1.8 0-3.333-0.283-4.6-0.85-1.267-0.567-2.24-1.377-2.92-2.43-0.687-1.047-1.03-2.287-1.03-3.72v0c0-2.1 0.783-3.827 2.35-5.18 1.567-1.347 3.833-2.17 6.8-2.47v0l7.7-0.85v-2c0-1.4-0.517-2.527-1.55-3.38-1.033-0.847-2.433-1.27-4.2-1.27v0c-1.733 0-3.173 0.4-4.32 1.2-1.153 0.8-1.947 1.95-2.38 3.45v0l-3.4-1.2c0.667-2.2 1.893-3.917 3.68-5.15 1.78-1.233 3.953-1.85 6.52-1.85v0c2.967 0 5.277 0.757 6.93 2.27 1.647 1.52 2.47 3.58 2.47 6.18v0zM742.15-11.15v-0.8l-7.75 0.9c-1.667 0.2-2.933 0.657-3.8 1.37-0.867 0.72-1.3 1.663-1.3 2.83v0c0 1.167 0.427 2.1 1.28 2.8 0.847 0.7 2.07 1.05 3.67 1.05v0c1.833 0 3.333-0.367 4.5-1.1 1.167-0.733 2.027-1.727 2.58-2.98 0.547-1.247 0.82-2.603 0.82-4.07zM751.05-25h3.75v-7h3.75v7h6.65v3.5h-6.65v13.45c0 1.533 0.323 2.65 0.97 3.35 0.653 0.7 1.487 1.117 2.5 1.25 1.02 0.133 2.08 0.133 3.18 0v0 3.25c-1.3 0.3-2.573 0.383-3.82 0.25-1.253-0.133-2.373-0.507-3.36-1.12-0.98-0.62-1.76-1.497-2.34-2.63-0.587-1.133-0.88-2.583-0.88-4.35v0-13.45h-3.75zM771.55 0v-25h3.7v25zM773.45-30v0c-0.767 0-1.4-0.25-1.9-0.75-0.5-0.5-0.75-1.117-0.75-1.85v0c0-0.767 0.25-1.4 0.75-1.9 0.5-0.5 1.133-0.75 1.9-0.75v0c0.7 0 1.31 0.25 1.83 0.75 0.513 0.5 0.77 1.133 0.77 1.9v0c0 0.733-0.257 1.35-0.77 1.85-0.52 0.5-1.13 0.75-1.83 0.75zM783.7 0v-25h3.45l0.2 3.55c0.8-1.233 1.85-2.193 3.15-2.88 1.3-0.68 2.817-1.02 4.55-1.02v0c1.9 0 3.567 0.407 5 1.22 1.433 0.82 2.55 2.037 3.35 3.65 0.8 1.62 1.2 3.647 1.2 6.08v0 14.4h-3.75v-13.95c0-2.6-0.557-4.577-1.67-5.93-1.12-1.347-2.73-2.02-4.83-2.02v0c-2.167 0-3.86 0.717-5.08 2.15-1.213 1.433-1.82 3.55-1.82 6.35v0 13.4zM830.8-20.35l0.25-4.65h3.45v20.4c0 3.067-0.683 5.693-2.05 7.88-1.367 2.18-3.35 3.847-5.95 5-2.6 1.147-5.767 1.72-9.5 1.72v0l-0.6-3.45c4.7-0.067 8.267-1.04 10.7-2.92 2.433-1.887 3.65-4.63 3.65-8.23v0-0.55l0.4 0.1c-0.767 1.467-1.917 2.723-3.45 3.77-1.533 1.053-3.517 1.597-5.95 1.63v0c-2.3 0-4.307-0.527-6.02-1.58-1.72-1.047-3.053-2.537-4-4.47-0.953-1.933-1.43-4.2-1.43-6.8v0c0-2.6 0.477-4.86 1.43-6.78 0.947-1.913 2.28-3.403 4-4.47 1.713-1.067 3.72-1.6 6.02-1.6v0c1.5 0 2.833 0.223 4 0.67 1.167 0.453 2.167 1.053 3 1.8 0.833 0.753 1.517 1.597 2.05 2.53zM814.35-12.5v0c0 2.867 0.743 5.14 2.23 6.82 1.48 1.687 3.487 2.53 6.02 2.53v0c1.533 0 2.917-0.367 4.15-1.1 1.233-0.733 2.207-1.8 2.92-3.2 0.72-1.4 1.08-3.083 1.08-5.05v0c0-1.967-0.36-3.643-1.08-5.03-0.713-1.38-1.687-2.447-2.92-3.2-1.233-0.747-2.617-1.12-4.15-1.12v0c-2.5 0-4.5 0.85-6 2.55-1.5 1.7-2.25 3.967-2.25 6.8zM876.75-24.65v0c0-2.1-0.617-3.767-1.85-5-1.233-1.233-3.25-1.85-6.05-1.85v0h-8.3v13.7h8.35c1.833 0 3.327-0.283 4.48-0.85 1.147-0.567 1.993-1.367 2.54-2.4 0.553-1.033 0.83-2.233 0.83-3.6zM856.55-35h12.3c2.733 0 4.973 0.467 6.72 1.4 1.753 0.933 3.063 2.173 3.93 3.72 0.867 1.553 1.3 3.297 1.3 5.23v0c0 1.367-0.223 2.667-0.67 3.9-0.453 1.233-1.163 2.333-2.13 3.3-0.967 0.967-2.2 1.733-3.7 2.3-1.5 0.567-3.3 0.85-5.4 0.85v0h-8.35v14.3h-4zM867.45-15.8h4.3l9.7 15.8h-4.55zM897.9 0.35v0c-2.333 0-4.41-0.567-6.23-1.7-1.813-1.133-3.237-2.683-4.27-4.65-1.033-1.967-1.55-4.217-1.55-6.75v0c0-2.433 0.517-4.6 1.55-6.5 1.033-1.9 2.45-3.393 4.25-4.48 1.8-1.08 3.85-1.62 6.15-1.62v0c2.267 0 4.293 0.5 6.08 1.5 1.78 1 3.17 2.383 4.17 4.15 1 1.767 1.467 3.783 1.4 6.05v0c0 0.367-0.017 0.75-0.05 1.15-0.033 0.4-0.067 0.833-0.1 1.3v0h-19.35c0.067 1.567 0.45 2.95 1.15 4.15 0.7 1.2 1.627 2.14 2.78 2.82 1.147 0.687 2.453 1.03 3.92 1.03v0c1.933 0 3.573-0.367 4.92-1.1 1.353-0.733 2.33-1.783 2.93-3.15v0l3.25 1.3c-1 2.1-2.45 3.707-4.35 4.82-1.9 1.12-4.117 1.68-6.65 1.68zM890-14.45h15.35c0.033-1.433-0.277-2.7-0.93-3.8-0.647-1.1-1.553-1.967-2.72-2.6-1.167-0.633-2.517-0.95-4.05-0.95v0c-1.333 0-2.55 0.317-3.65 0.95-1.1 0.633-2.01 1.507-2.73 2.62-0.713 1.12-1.137 2.38-1.27 3.78zM914.05-6.45l3.6-1.2c0.2 1 0.567 1.823 1.1 2.47 0.533 0.653 1.227 1.147 2.08 1.48 0.847 0.333 1.837 0.5 2.97 0.5v0c1.767 0 3.11-0.343 4.03-1.03 0.913-0.68 1.37-1.537 1.37-2.57v0c0-0.867-0.273-1.567-0.82-2.1-0.553-0.533-1.28-0.977-2.18-1.33-0.9-0.347-1.9-0.653-3-0.92v0c-0.867-0.2-1.8-0.443-2.8-0.73-1-0.28-1.95-0.67-2.85-1.17-0.9-0.5-1.633-1.15-2.2-1.95-0.567-0.8-0.85-1.85-0.85-3.15v0c0-1.433 0.39-2.693 1.17-3.78 0.787-1.08 1.87-1.92 3.25-2.52 1.387-0.6 2.98-0.9 4.78-0.9v0c2.067 0 3.91 0.45 5.53 1.35 1.613 0.9 2.737 2.3 3.37 4.2v0l-3.5 1.2c-0.233-0.867-0.657-1.533-1.27-2-0.62-0.467-1.307-0.783-2.06-0.95-0.747-0.167-1.487-0.25-2.22-0.25v0c-1.5 0-2.71 0.29-3.63 0.87-0.913 0.587-1.37 1.463-1.37 2.63v0c0 0.633 0.15 1.157 0.45 1.57 0.3 0.42 0.717 0.763 1.25 1.03 0.533 0.267 1.167 0.49 1.9 0.67 0.733 0.187 1.533 0.397 2.4 0.63v0c0.967 0.233 1.95 0.523 2.95 0.87 1 0.353 1.933 0.803 2.8 1.35 0.867 0.553 1.573 1.253 2.12 2.1 0.553 0.853 0.83 1.913 0.83 3.18v0c0 1.467-0.4 2.74-1.2 3.82-0.8 1.087-1.907 1.93-3.32 2.53-1.42 0.6-3.063 0.9-4.93 0.9v0c-2.567 0-4.693-0.577-6.38-1.73-1.68-1.147-2.803-2.837-3.37-5.07zM940.1 0v-25h3.7v25zM942-30v0c-0.767 0-1.4-0.25-1.9-0.75-0.5-0.5-0.75-1.117-0.75-1.85v0c0-0.767 0.25-1.4 0.75-1.9 0.5-0.5 1.133-0.75 1.9-0.75v0c0.7 0 1.31 0.25 1.83 0.75 0.513 0.5 0.77 1.133 0.77 1.9v0c0 0.733-0.257 1.35-0.77 1.85-0.52 0.5-1.13 0.75-1.83 0.75zM952.25 0v-36h3.75v36zM964.4 0v-25h3.7v25zM966.3-30v0c-0.767 0-1.4-0.25-1.9-0.75-0.5-0.5-0.75-1.117-0.75-1.85v0c0-0.767 0.25-1.4 0.75-1.9 0.5-0.5 1.133-0.75 1.9-0.75v0c0.7 0 1.31 0.25 1.83 0.75 0.513 0.5 0.77 1.133 0.77 1.9v0c0 0.733-0.257 1.35-0.77 1.85-0.52 0.5-1.13 0.75-1.83 0.75zM987.05 0.35v0c-2.333 0-4.41-0.567-6.23-1.7-1.813-1.133-3.237-2.683-4.27-4.65-1.033-1.967-1.55-4.217-1.55-6.75v0c0-2.433 0.517-4.6 1.55-6.5 1.033-1.9 2.45-3.393 4.25-4.48 1.8-1.08 3.85-1.62 6.15-1.62v0c2.267 0 4.29 0.5 6.07 1.5 1.787 1 3.18 2.383 4.18 4.15 1 1.767 1.467 3.783 1.4 6.05v0c0 0.367-0.017 0.75-0.05 1.15-0.033 0.4-0.067 0.833-0.1 1.3v0h-19.35c0.067 1.567 0.45 2.95 1.15 4.15 0.7 1.2 1.623 2.14 2.77 2.82 1.153 0.687 2.463 1.03 3.93 1.03v0c1.933 0 3.573-0.367 4.92-1.1 1.353-0.733 2.33-1.783 2.93-3.15v0l3.25 1.3c-1 2.1-2.45 3.707-4.35 4.82-1.9 1.12-4.117 1.68-6.65 1.68zM979.15-14.45h15.35c0.033-1.433-0.277-2.7-0.93-3.8-0.647-1.1-1.553-1.967-2.72-2.6-1.167-0.633-2.517-0.95-4.05-0.95v0c-1.333 0-2.55 0.317-3.65 0.95-1.1 0.633-2.01 1.507-2.73 2.62-0.713 1.12-1.137 2.38-1.27 3.78zM1004.75 0v-25h3.45l0.2 3.55c0.8-1.233 1.85-2.193 3.15-2.88 1.3-0.68 2.817-1.02 4.55-1.02v0c1.9 0 3.567 0.407 5 1.22 1.433 0.82 2.55 2.037 3.35 3.65 0.8 1.62 1.2 3.647 1.2 6.08v0 14.4h-3.75v-13.95c0-2.6-0.557-4.577-1.67-5.93-1.12-1.347-2.73-2.02-4.83-2.02v0c-2.167 0-3.86 0.717-5.08 2.15-1.213 1.433-1.82 3.55-1.82 6.35v0 13.4zM1043.55 0.35v0c-2.433 0-4.567-0.533-6.4-1.6-1.833-1.067-3.257-2.56-4.27-4.48-1.02-1.913-1.53-4.137-1.53-6.67v0c0-2.567 0.51-4.827 1.53-6.78 1.013-1.947 2.437-3.463 4.27-4.55 1.833-1.08 3.967-1.62 6.4-1.62v0c2.567 0 4.817 0.59 6.75 1.77 1.933 1.187 3.333 2.83 4.2 4.93v0l-3.45 1.2c-0.5-1.333-1.407-2.393-2.72-3.18-1.32-0.78-2.847-1.17-4.58-1.17v0c-1.7 0-3.173 0.383-4.42 1.15-1.253 0.767-2.223 1.85-2.91 3.25-0.68 1.4-1.02 3.05-1.02 4.95v0c0 2.8 0.75 5.04 2.25 6.72 1.5 1.687 3.5 2.53 6 2.53v0c1.7 0 3.217-0.383 4.55-1.15 1.333-0.767 2.317-1.8 2.95-3.1v0l3.4 1.2c-0.9 2.067-2.317 3.683-4.25 4.85-1.933 1.167-4.183 1.75-6.75 1.75zM1071.2 0.35v0c-2.333 0-4.41-0.567-6.23-1.7-1.813-1.133-3.237-2.683-4.27-4.65-1.033-1.967-1.55-4.217-1.55-6.75v0c0-2.433 0.517-4.6 1.55-6.5 1.033-1.9 2.45-3.393 4.25-4.48 1.8-1.08 3.85-1.62 6.15-1.62v0c2.267 0 4.29 0.5 6.07 1.5 1.787 1 3.18 2.383 4.18 4.15 1 1.767 1.467 3.783 1.4 6.05v0c0 0.367-0.017 0.75-0.05 1.15-0.033 0.4-0.067 0.833-0.1 1.3v0h-19.35c0.067 1.567 0.45 2.95 1.15 4.15 0.7 1.2 1.623 2.14 2.77 2.82 1.153 0.687 2.463 1.03 3.93 1.03v0c1.933 0 3.573-0.367 4.92-1.1 1.353-0.733 2.33-1.783 2.93-3.15v0l3.25 1.3c-1 2.1-2.45 3.707-4.35 4.82-1.9 1.12-4.117 1.68-6.65 1.68zM1063.3-14.45h15.35c0.033-1.433-0.277-2.7-0.93-3.8-0.647-1.1-1.553-1.967-2.72-2.6-1.167-0.633-2.517-0.95-4.05-0.95v0c-1.333 0-2.55 0.317-3.65 0.95-1.1 0.633-2.01 1.507-2.73 2.62-0.713 1.12-1.137 2.38-1.27 3.78z" fill="#000000" fill-rule="nonzero" stroke="none" stroke-width="1" stroke-linecap="butt" stroke-linejoin="miter" stroke-miterlimit="10" stroke-dasharray="" stroke-dashoffset="0" font-family="none" font-weight="none" font-size="none" text-anchor="none" style="mix-blend-mode: normal" data-fill-palette-color="secondary" id="text-1"></path></g></g><g transform="matrix(1,0,0,1,29.33176499999999,69.01084599725925)"><svg viewBox="0 0 316.416 104.44263800548153" height="104.44263800548153" width="316.416"><g><svg viewBox="0 0 502.07822907814295 165.72605282299793" height="104.44263800548153" width="316.416"><g><rect width="4.492119046476222" height="127.34606981519505" x="328.17547394365505" y="19.18999150390144" fill="#000000" opacity="1" stroke-width="0" stroke="transparent" fill-opacity="1" class="rect-yte-0" data-fill-palette-color="primary" rx="1%" id="yte-0" data-palette-color="#dedad7"></rect></g><g transform="matrix(1,0,0,1,0,29.80216398850102)"><svg viewBox="0 0 316.416 106.12172484599589" height="106.12172484599589" width="316.416"><g id="textblocktransform"><svg viewBox="0 0 316.416 106.12172484599589" height="106.12172484599589" width="316.416" id="textblock"><g><svg viewBox="0 0 316.416 106.12172484599589" height="106.12172484599589" width="316.416"><g transform="matrix(1,0,0,1,0,0)"><svg width="316.416" viewBox="56.5 -36 292.20000000000005 85.35" height="106.12172484599589" data-palette-color="#dedad7"><svg></svg><svg></svg><g class="wordmark-text-0" data-fill-palette-color="primary" id="text-0"><path transform="translate(52.25,0)" d="M27.2-35v3.5h-18.95v11.95h14.25v3.5h-14.25v12.55h18.95v3.5h-22.95v-35zM44.95 0.35v0c-2.433 0-4.567-0.533-6.4-1.6-1.833-1.067-3.257-2.56-4.27-4.48-1.02-1.913-1.53-4.137-1.53-6.67v0c0-2.567 0.51-4.827 1.53-6.78 1.013-1.947 2.437-3.463 4.27-4.55 1.833-1.08 3.967-1.62 6.4-1.62v0c2.567 0 4.817 0.59 6.75 1.77 1.933 1.187 3.333 2.83 4.2 4.93v0l-3.45 1.2c-0.5-1.333-1.407-2.393-2.72-3.18-1.32-0.78-2.847-1.17-4.58-1.17v0c-1.7 0-3.173 0.383-4.42 1.15-1.253 0.767-2.22 1.85-2.9 3.25-0.687 1.4-1.03 3.05-1.03 4.95v0c0 2.8 0.75 5.04 2.25 6.72 1.5 1.687 3.5 2.53 6 2.53v0c1.7 0 3.217-0.383 4.55-1.15 1.333-0.767 2.317-1.8 2.95-3.1v0l3.4 1.2c-0.9 2.067-2.317 3.683-4.25 4.85-1.933 1.167-4.183 1.75-6.75 1.75zM72.9 0.35v0c-2.367 0-4.483-0.517-6.35-1.55-1.867-1.033-3.333-2.51-4.4-4.43-1.067-1.913-1.6-4.187-1.6-6.82v0c0-2.667 0.54-4.967 1.62-6.9 1.087-1.933 2.573-3.417 4.46-4.45 1.88-1.033 4.003-1.55 6.37-1.55v0c2.367 0 4.493 0.517 6.38 1.55 1.88 1.033 3.363 2.507 4.45 4.42 1.08 1.92 1.62 4.197 1.62 6.83v0c0 2.667-0.55 4.967-1.65 6.9-1.1 1.933-2.6 3.417-4.5 4.45-1.9 1.033-4.033 1.55-6.4 1.55zM72.85-3.2v0c1.467 0 2.85-0.323 4.15-0.97 1.3-0.653 2.357-1.673 3.17-3.06 0.82-1.38 1.23-3.137 1.23-5.27v0c0-2.167-0.4-3.933-1.2-5.3-0.8-1.367-1.84-2.377-3.12-3.03-1.287-0.647-2.663-0.97-4.13-0.97v0c-1.467 0-2.833 0.323-4.1 0.97-1.267 0.653-2.29 1.67-3.07 3.05-0.787 1.387-1.18 3.147-1.18 5.28v0c0 2.167 0.383 3.933 1.15 5.3 0.767 1.367 1.777 2.377 3.03 3.03 1.247 0.647 2.603 0.97 4.07 0.97zM88.55-25h4l7.9 20.8 7.95-20.8h3.95l-10 25h-3.9zM136.05 0h-3.45l-0.3-4.5c-0.7 1.533-1.733 2.723-3.1 3.57-1.367 0.853-3.1 1.28-5.2 1.28v0c-1.8 0-3.333-0.283-4.6-0.85-1.267-0.567-2.243-1.377-2.93-2.43-0.68-1.047-1.02-2.287-1.02-3.72v0c0-2.1 0.783-3.827 2.35-5.18 1.567-1.347 3.833-2.17 6.8-2.47v0l7.7-0.85v-2c0-1.4-0.517-2.527-1.55-3.38-1.033-0.847-2.433-1.27-4.2-1.27v0c-1.733 0-3.177 0.4-4.33 1.2-1.147 0.8-1.937 1.95-2.37 3.45v0l-3.4-1.2c0.667-2.2 1.893-3.917 3.68-5.15 1.78-1.233 3.953-1.85 6.52-1.85v0c2.967 0 5.273 0.757 6.92 2.27 1.653 1.52 2.48 3.58 2.48 6.18v0zM132.3-11.15v-0.8l-7.75 0.9c-1.667 0.2-2.933 0.657-3.8 1.37-0.867 0.72-1.3 1.663-1.3 2.83v0c0 1.167 0.423 2.1 1.27 2.8 0.853 0.7 2.08 1.05 3.68 1.05v0c1.833 0 3.333-0.367 4.5-1.1 1.167-0.733 2.023-1.727 2.57-2.98 0.553-1.247 0.83-2.603 0.83-4.07zM143.35 0v-25h3.45l0.2 3.55c0.8-1.233 1.85-2.193 3.15-2.88 1.3-0.68 2.817-1.02 4.55-1.02v0c1.9 0 3.567 0.407 5 1.22 1.433 0.82 2.55 2.037 3.35 3.65 0.8 1.62 1.2 3.647 1.2 6.08v0 14.4h-3.75v-13.95c0-2.6-0.56-4.577-1.68-5.93-1.113-1.347-2.72-2.02-4.82-2.02v0c-2.167 0-3.857 0.717-5.07 2.15-1.22 1.433-1.83 3.55-1.83 6.35v0 13.4zM190.45-20.35l0.25-4.65h3.45v20.4c0 3.067-0.683 5.693-2.05 7.88-1.367 2.18-3.35 3.847-5.95 5-2.6 1.147-5.767 1.72-9.5 1.72v0l-0.6-3.45c4.7-0.067 8.267-1.04 10.7-2.92 2.433-1.887 3.65-4.63 3.65-8.23v0-0.55l0.4 0.1c-0.767 1.467-1.917 2.723-3.45 3.77-1.533 1.053-3.517 1.597-5.95 1.63v0c-2.3 0-4.307-0.527-6.02-1.58-1.72-1.047-3.053-2.537-4-4.47-0.953-1.933-1.43-4.2-1.43-6.8v0c0-2.6 0.477-4.86 1.43-6.78 0.947-1.913 2.28-3.403 4-4.47 1.713-1.067 3.72-1.6 6.02-1.6v0c1.5 0 2.833 0.223 4 0.67 1.167 0.453 2.167 1.053 3 1.8 0.833 0.753 1.517 1.597 2.05 2.53zM174-12.5v0c0 2.867 0.74 5.14 2.22 6.82 1.487 1.687 3.497 2.53 6.03 2.53v0c1.533 0 2.917-0.367 4.15-1.1 1.233-0.733 2.21-1.8 2.93-3.2 0.713-1.4 1.07-3.083 1.07-5.05v0c0-1.967-0.357-3.643-1.07-5.03-0.72-1.38-1.697-2.447-2.93-3.2-1.233-0.747-2.617-1.12-4.15-1.12v0c-2.5 0-4.5 0.85-6 2.55-1.5 1.7-2.25 3.967-2.25 6.8zM222.25-25v25h-3.4l-0.25-3.6c-0.767 1.267-1.8 2.24-3.1 2.92-1.3 0.687-2.817 1.03-4.55 1.03v0c-1.933 0-3.617-0.4-5.05-1.2-1.433-0.8-2.54-2-3.32-3.6-0.787-1.6-1.18-3.617-1.18-6.05v0-14.5h3.7v14.1c0 2.567 0.56 4.507 1.68 5.82 1.113 1.32 2.72 1.98 4.82 1.98v0c2.133 0 3.827-0.693 5.08-2.08 1.247-1.38 1.87-3.47 1.87-6.27v0-13.55zM249 0h-3.45l-0.3-4.5c-0.7 1.533-1.733 2.723-3.1 3.57-1.367 0.853-3.1 1.28-5.2 1.28v0c-1.8 0-3.333-0.283-4.6-0.85-1.267-0.567-2.24-1.377-2.92-2.43-0.687-1.047-1.03-2.287-1.03-3.72v0c0-2.1 0.783-3.827 2.35-5.18 1.567-1.347 3.833-2.17 6.8-2.47v0l7.7-0.85v-2c0-1.4-0.517-2.527-1.55-3.38-1.033-0.847-2.433-1.27-4.2-1.27v0c-1.733 0-3.173 0.4-4.32 1.2-1.153 0.8-1.947 1.95-2.38 3.45v0l-3.4-1.2c0.667-2.2 1.893-3.917 3.68-5.15 1.78-1.233 3.953-1.85 6.52-1.85v0c2.967 0 5.277 0.757 6.93 2.27 1.647 1.52 2.47 3.58 2.47 6.18v0zM245.25-11.15v-0.8l-7.75 0.9c-1.667 0.2-2.933 0.657-3.8 1.37-0.867 0.72-1.3 1.663-1.3 2.83v0c0 1.167 0.427 2.1 1.28 2.8 0.847 0.7 2.07 1.05 3.67 1.05v0c1.833 0 3.333-0.367 4.5-1.1 1.167-0.733 2.027-1.727 2.58-2.98 0.547-1.247 0.82-2.603 0.82-4.07zM256.3 0v-25h3.45l0.2 3.65c0.667-0.9 1.477-1.667 2.43-2.3 0.947-0.633 1.997-1.077 3.15-1.33 1.147-0.247 2.37-0.253 3.67-0.02v0 3.75c-1.4-0.267-2.657-0.267-3.77 0-1.12 0.267-2.08 0.767-2.88 1.5-0.8 0.733-1.417 1.657-1.85 2.77-0.433 1.12-0.65 2.413-0.65 3.88v0 13.1zM293.1-19.95v0l-0.4 0.05v-16.1h3.75v36h-3.45l-0.25-4.65c-0.767 1.4-1.907 2.583-3.42 3.55-1.52 0.967-3.397 1.45-5.63 1.45v0c-2.3 0-4.307-0.527-6.02-1.58-1.72-1.047-3.053-2.537-4-4.47-0.953-1.933-1.43-4.2-1.43-6.8v0c0-2.6 0.477-4.86 1.43-6.78 0.947-1.913 2.28-3.403 4-4.47 1.713-1.067 3.72-1.6 6.02-1.6v0c2.367 0 4.333 0.517 5.9 1.55 1.567 1.033 2.733 2.317 3.5 3.85zM276.3-12.5v0c0 2.867 0.733 5.14 2.2 6.82 1.467 1.687 3.467 2.53 6 2.53v0c1.567 0 2.967-0.367 4.2-1.1 1.233-0.733 2.21-1.8 2.93-3.2 0.713-1.4 1.07-3.083 1.07-5.05v0c0-1.967-0.357-3.643-1.07-5.03-0.72-1.38-1.697-2.447-2.93-3.2-1.233-0.747-2.633-1.12-4.2-1.12v0c-2.5 0-4.49 0.84-5.97 2.52-1.487 1.687-2.23 3.963-2.23 6.83z" fill="#000000" fill-rule="nonzero" stroke="none" stroke-width="1" stroke-linecap="butt" stroke-linejoin="miter" stroke-miterlimit="10" stroke-dasharray="" stroke-dashoffset="0" font-family="none" font-weight="none" font-size="none" text-anchor="none" style="mix-blend-mode: normal" data-fill-palette-color="primary" opacity="1"></path><path transform="translate(99.18,49)" d="M16.9-4.25l11.25-30.75h4.25l-13.3 35h-4.6l-13.1-35h4.25zM44.85 0.35v0c-2.333 0-4.407-0.567-6.22-1.7-1.82-1.133-3.247-2.683-4.28-4.65-1.033-1.967-1.55-4.217-1.55-6.75v0c0-2.433 0.517-4.6 1.55-6.5 1.033-1.9 2.45-3.393 4.25-4.48 1.8-1.08 3.85-1.62 6.15-1.62v0c2.267 0 4.293 0.5 6.08 1.5 1.78 1 3.17 2.383 4.17 4.15 1 1.767 1.467 3.783 1.4 6.05v0c0 0.367-0.017 0.75-0.05 1.15-0.033 0.4-0.067 0.833-0.1 1.3v0h-19.35c0.067 1.567 0.45 2.95 1.15 4.15 0.7 1.2 1.627 2.14 2.78 2.82 1.147 0.687 2.453 1.03 3.92 1.03v0c1.933 0 3.573-0.367 4.92-1.1 1.353-0.733 2.33-1.783 2.93-3.15v0l3.25 1.3c-1 2.1-2.45 3.707-4.35 4.82-1.9 1.12-4.117 1.68-6.65 1.68zM36.95-14.45h15.35c0.033-1.433-0.273-2.7-0.92-3.8-0.653-1.1-1.563-1.967-2.73-2.6-1.167-0.633-2.517-0.95-4.05-0.95v0c-1.333 0-2.55 0.317-3.65 0.95-1.1 0.633-2.007 1.507-2.72 2.62-0.72 1.12-1.147 2.38-1.28 3.78zM62.55 0v-25h3.45l0.2 3.55c0.8-1.233 1.85-2.193 3.15-2.88 1.3-0.68 2.817-1.02 4.55-1.02v0c1.9 0 3.567 0.407 5 1.22 1.433 0.82 2.55 2.037 3.35 3.65 0.8 1.62 1.2 3.647 1.2 6.08v0 14.4h-3.75v-13.95c0-2.6-0.557-4.577-1.67-5.93-1.12-1.347-2.73-2.02-4.83-2.02v0c-2.167 0-3.857 0.717-5.07 2.15-1.22 1.433-1.83 3.55-1.83 6.35v0 13.4zM88.55-25h3.75v-7h3.75v7h6.65v3.5h-6.65v13.45c0 1.533 0.327 2.65 0.98 3.35 0.647 0.7 1.48 1.117 2.5 1.25 1.013 0.133 2.07 0.133 3.17 0v0 3.25c-1.3 0.3-2.573 0.383-3.82 0.25-1.253-0.133-2.37-0.507-3.35-1.12-0.987-0.62-1.77-1.497-2.35-2.63-0.587-1.133-0.88-2.583-0.88-4.35v0-13.45h-3.75zM128.75-25v25h-3.4l-0.25-3.6c-0.767 1.267-1.8 2.24-3.1 2.92-1.3 0.687-2.817 1.03-4.55 1.03v0c-1.933 0-3.617-0.4-5.05-1.2-1.433-0.8-2.54-2-3.32-3.6-0.787-1.6-1.18-3.617-1.18-6.05v0-14.5h3.7v14.1c0 2.567 0.56 4.507 1.68 5.82 1.113 1.32 2.72 1.98 4.82 1.98v0c2.133 0 3.827-0.693 5.08-2.08 1.247-1.38 1.87-3.47 1.87-6.27v0-13.55zM136.4 0v-25h3.45l0.2 3.65c0.667-0.9 1.477-1.667 2.43-2.3 0.947-0.633 1.997-1.077 3.15-1.33 1.147-0.247 2.37-0.253 3.67-0.02v0 3.75c-1.4-0.267-2.657-0.267-3.77 0-1.12 0.267-2.08 0.767-2.88 1.5-0.8 0.733-1.417 1.657-1.85 2.77-0.433 1.12-0.65 2.413-0.65 3.88v0 13.1zM164.4 0.35v0c-2.333 0-4.407-0.567-6.22-1.7-1.82-1.133-3.247-2.683-4.28-4.65-1.033-1.967-1.55-4.217-1.55-6.75v0c0-2.433 0.517-4.6 1.55-6.5 1.033-1.9 2.45-3.393 4.25-4.48 1.8-1.08 3.85-1.62 6.15-1.62v0c2.267 0 4.293 0.5 6.08 1.5 1.78 1 3.17 2.383 4.17 4.15 1 1.767 1.467 3.783 1.4 6.05v0c0 0.367-0.017 0.75-0.05 1.15-0.033 0.4-0.067 0.833-0.1 1.3v0h-19.35c0.067 1.567 0.45 2.95 1.15 4.15 0.7 1.2 1.627 2.14 2.78 2.82 1.147 0.687 2.453 1.03 3.92 1.03v0c1.933 0 3.577-0.367 4.93-1.1 1.347-0.733 2.32-1.783 2.92-3.15v0l3.25 1.3c-1 2.1-2.45 3.707-4.35 4.82-1.9 1.12-4.117 1.68-6.65 1.68zM156.5-14.45h15.35c0.033-1.433-0.273-2.7-0.92-3.8-0.653-1.1-1.563-1.967-2.73-2.6-1.167-0.633-2.517-0.95-4.05-0.95v0c-1.333 0-2.55 0.317-3.65 0.95-1.1 0.633-2.007 1.507-2.72 2.62-0.72 1.12-1.147 2.38-1.28 3.78zM180.55-6.45l3.6-1.2c0.2 1 0.567 1.823 1.1 2.47 0.533 0.653 1.223 1.147 2.07 1.48 0.853 0.333 1.847 0.5 2.98 0.5v0c1.767 0 3.107-0.343 4.02-1.03 0.92-0.68 1.38-1.537 1.38-2.57v0c0-0.867-0.273-1.567-0.82-2.1-0.553-0.533-1.28-0.977-2.18-1.33-0.9-0.347-1.9-0.653-3-0.92v0c-0.867-0.2-1.8-0.443-2.8-0.73-1-0.28-1.95-0.67-2.85-1.17-0.9-0.5-1.633-1.15-2.2-1.95-0.567-0.8-0.85-1.85-0.85-3.15v0c0-1.433 0.393-2.693 1.18-3.78 0.78-1.08 1.863-1.92 3.25-2.52 1.38-0.6 2.97-0.9 4.77-0.9v0c2.067 0 3.907 0.45 5.52 1.35 1.62 0.9 2.747 2.3 3.38 4.2v0l-3.5 1.2c-0.233-0.867-0.66-1.533-1.28-2-0.613-0.467-1.293-0.783-2.04-0.95-0.753-0.167-1.497-0.25-2.23-0.25v0c-1.5 0-2.707 0.29-3.62 0.87-0.92 0.587-1.38 1.463-1.38 2.63v0c0 0.633 0.15 1.157 0.45 1.57 0.3 0.42 0.717 0.763 1.25 1.03 0.533 0.267 1.167 0.49 1.9 0.67 0.733 0.187 1.533 0.397 2.4 0.63v0c0.967 0.233 1.95 0.523 2.95 0.87 1 0.353 1.933 0.803 2.8 1.35 0.867 0.553 1.577 1.253 2.13 2.1 0.547 0.853 0.82 1.913 0.82 3.18v0c0 1.467-0.4 2.74-1.2 3.82-0.8 1.087-1.91 1.93-3.33 2.53-1.413 0.6-3.053 0.9-4.92 0.9v0c-2.567 0-4.69-0.577-6.37-1.73-1.687-1.147-2.813-2.837-3.38-5.07z" fill="#000000" fill-rule="nonzero" stroke="none" stroke-width="1" stroke-linecap="butt" stroke-linejoin="miter" stroke-miterlimit="10" stroke-dasharray="" stroke-dashoffset="0" font-family="none" font-weight="none" font-size="none" text-anchor="none" style="mix-blend-mode: normal" data-fill-palette-color="primary" opacity="1"></path></g></svg></g></svg></g></svg></g></svg></g><g transform="matrix(1,0,0,1,344.4270669337863,0)"><svg viewBox="0 0 157.65116214435665 165.72605282299793" height="165.72605282299793" width="157.65116214435665"><g><svg xmlns="http://www.w3.org/2000/svg" xmlns:xlink="http://www.w3.org/1999/xlink" version="1.1" x="0" y="0" viewBox="3.98 2.3425 64.0375 67.3175" style="enable-background:new 0 0 72 72;" xml:space="preserve" height="165.72605282299793" width="157.65116214435665" class="icon-icon-0" data-fill-palette-color="accent" id="icon-0"><path d="M67.17 34.01C68.3 34.01 68.3 35.71 67.17 35.71H61.97C60.93 35.71 60.93 34.01 61.97 34.01zM57.71 11.89C58.47 11.13 59.7 12.36 58.84 13.12L55.15 16.71C54.39 17.47 53.26 16.33 54.02 15.58zM13.18 13.12C12.33 12.36 13.56 11.13 14.31 11.89L18 15.58C18.76 16.34 17.62 17.47 16.87 16.71zM35.21 3.19C35.21 2.06 36.82 2.06 36.82 3.19V8.3C36.82 9.43 35.21 9.43 35.21 8.3zM44.76 63.23V60.3H27.27V63.23zM44.76 58.69V56.89C44.76 56.32 44.29 55.85 43.72 55.85H36.82V58.69zM35.21 55.86H28.31C27.74 55.86 27.27 56.33 27.27 56.9V58.7H35.21zM27.93 64.94L29.82 67.97H42.21L44.1 64.94zM46.37 56.9V64.09C46.37 64.28 46.37 64.37 46.28 64.56L43.44 69.19C43.25 69.47 42.97 69.66 42.68 69.66H29.35A0.71 0.71 0 0 1 28.69 69.19L25.76 64.56C25.67 64.47 25.67 64.28 25.67 64.09V56.9C25.67 56.14 25.95 55.48 26.43 55.01 21.32 52.55 17.26 48.3 14.99 43.1 14.9 42.63 15.08 42.15 15.46 41.97L19.9 40.17C18.58 39.13 15.55 39.04 14.32 39.04A0.85 0.85 0 0 1 13.47 38.19V30.53C13.47 30.06 13.85 29.68 14.32 29.68 21.41 29.68 22.36 27.32 17.35 22.3 17.07 22.02 17.07 21.45 17.35 21.17L22.83 15.69C23.11 15.41 23.68 15.41 23.96 15.69 28.88 20.99 31.34 19.28 31.34 12.66 31.34 12.19 31.72 11.81 32.19 11.81H39.85C40.32 11.81 40.7 12.19 40.7 12.66 40.7 19.75 43.06 20.7 48.08 15.69 48.36 15.41 48.93 15.41 49.21 15.78L54.69 21.17C54.97 21.45 54.97 22.02 54.69 22.3 53.74 23.15 51.76 25.42 51.57 27.03L55.92 25.23C56.39 25.04 56.87 25.23 57.05 25.7 59.98 32.89 59.13 41.02 54.59 47.45A23.2 23.2 0 0 1 45.61 55.01C46.08 55.48 46.37 56.14 46.37 56.9M28.87 54.16H35.21V44.33C33.13 44.14 31.24 43.38 29.54 41.97 28.78 41.31 29.82 39.98 30.67 40.74 33.79 43.39 38.52 43.29 41.54 40.55 43.05 39.23 44 37.34 44.28 35.25 44.37 34.21 46.08 34.4 45.89 35.44 45.61 37.99 44.47 40.17 42.67 41.78 40.97 43.29 38.89 44.14 36.81 44.33V54.16H43.15C47.41 52.65 51 49.81 53.55 46.03 57.24 40.45 58.09 33.36 55.82 27.02L40.5 33.35C40.59 33.73 40.59 34.01 40.59 34.39 40.59 36.94 38.51 38.93 35.96 38.93 34.35 38.93 32.93 38.17 32.08 36.85L16.86 43.19A21.17 21.17 0 0 0 28.87 54.16M35.96 29.76C37.66 29.76 39.08 30.61 39.93 31.84L43.33 30.42A8.5 8.5 0 0 0 40.59 27.39C37.37 25.22 32.93 25.69 30.09 28.43 28.58 29.94 27.73 32.02 27.73 34.39 27.73 35.15 27.82 36 28.01 36.75L31.51 35.33C31.42 35.05 31.42 34.67 31.42 34.38 31.43 31.84 33.41 29.76 35.96 29.76M35.96 31.37C34.35 31.37 33.03 32.69 33.03 34.4A2.94 2.94 0 0 0 35.96 37.33C37.66 37.33 38.99 36.01 38.99 34.4 38.99 32.69 37.67 31.37 35.96 31.37M44.85 29.76L49.86 27.68C49.58 25.51 51.56 23.14 52.89 21.72L48.63 17.46C43.05 22.66 39.27 21.05 38.98 13.49H32.93C32.74 21.05 28.96 22.66 23.38 17.46L19.12 21.72C24.32 27.3 22.71 31.08 15.15 31.37V37.42C17.14 37.42 20.16 37.8 21.49 39.5L26.5 37.42C26.22 36.38 26.03 35.43 26.03 34.39 26.03 31.55 27.16 29.09 28.96 27.3 32.27 23.99 37.56 23.42 41.54 26.07 42.96 27.02 44.1 28.25 44.85 29.76M46.08 49.33C45.8 49.71 45.32 49.71 44.95 49.42 44.57 49.04 44.57 48.57 44.86 48.19L45.71 47.34C45.99 46.96 46.18 46.68 46.47 46.39 46.75 46.01 47.32 46.01 47.7 46.3 47.98 46.58 48.08 47.15 47.79 47.43 47.51 47.81 47.22 48.09 46.94 48.38zM50.15 44.42C49.87 44.8 49.39 44.89 49.02 44.61S48.55 43.85 48.74 43.48C49.87 41.87 50.73 40.27 51.2 38.66 51.77 37.05 51.96 35.35 51.86 33.46 51.86 32.99 52.14 32.61 52.62 32.61 53.09 32.61 53.47 32.89 53.57 33.37 53.66 35.45 53.38 37.34 52.81 39.14 52.23 41.01 51.38 42.71 50.15 44.42M4.76 35.72C3.72 35.72 3.72 34.02 4.76 34.02H9.96C11.09 34.02 11.09 35.72 9.96 35.72z" fill="#000000" data-fill-palette-color="accent"></path></svg></g></svg></g></svg></g></svg></g></svg></g><defs></defs></svg><rect width="375.07953" height="242.46433000000002" fill="none" stroke="none" visibility="hidden"></rect></g></svg></g></svg>