<svg xmlns="http://www.w3.org/2000/svg" version="1.1" xmlns:xlink="http://www.w3.org/1999/xlink" xmlns:svgjs="http://svgjs.dev/svgjs" width="1500" height="972" viewBox="0 0 1500 972"><g transform="matrix(1,0,0,1,0.15999999999996817,-0.7720000000000482)"><svg viewBox="0 0 375 243" data-background-color="#ffffff" preserveAspectRatio="xMidYMid meet" height="972" width="1500" xmlns="http://www.w3.org/2000/svg" xmlns:xlink="http://www.w3.org/1999/xlink"><g id="tight-bounds" transform="matrix(1,0,0,1,-0.03976000000000113,0.1931899999999871)"><svg viewBox="0 0 375.07953 242.61381" height="242.61381" width="375.07953"><g><svg></svg></g><g><svg viewBox="0 0 375.07953 242.61381" height="242.61381" width="375.07953"><g transform="matrix(1,0,0,1,-10.22024,-4.586189999999988)"><path d="M10.22 242.614v-238.028h375.08v238.028h-31.156l0-3.018h28.138v-231.992h-369.044v231.992l28.139 0 0 3.018z" fill="#636365" fill-rule="nonzero" stroke="none" stroke-width="1" stroke-linecap="butt" stroke-linejoin="miter" stroke-miterlimit="10" stroke-dasharray="" stroke-dashoffset="0" font-family="none" font-weight="none" font-size="none" text-anchor="none" style="mix-blend-mode: normal" data-fill-palette-color="tertiary"></path><g><path transform="translate(49.3595,244.4911) scale(0.27089,0.27089)" d="M8.95-18.35h8.05c1.633 0 2.977-0.26 4.03-0.78 1.047-0.513 1.82-1.237 2.32-2.17 0.5-0.933 0.75-2.017 0.75-3.25v0c0-1.967-0.567-3.5-1.7-4.6-1.133-1.1-2.933-1.65-5.4-1.65v0h-8.05zM29.1-24.55v0c0 1.267-0.217 2.523-0.65 3.77-0.433 1.253-1.133 2.38-2.1 3.38-0.967 1-2.223 1.79-3.77 2.37-1.553 0.587-3.413 0.88-5.58 0.88v0h-8.05v14.15h-5v-35h13.05c2.733 0 4.993 0.473 6.78 1.42 1.78 0.953 3.113 2.22 4 3.8 0.88 1.587 1.32 3.33 1.32 5.23zM35.45 0v-25h4.75v25zM37.85-29.4v0c-0.9 0-1.65-0.3-2.25-0.9-0.6-0.6-0.9-1.333-0.9-2.2v0c0-0.9 0.3-1.657 0.9-2.27 0.6-0.62 1.35-0.93 2.25-0.93v0c0.867 0 1.61 0.31 2.23 0.93 0.613 0.613 0.92 1.37 0.92 2.27v0c0 0.867-0.307 1.6-0.92 2.2-0.62 0.6-1.363 0.9-2.23 0.9zM59.05 0.35v0c-2.367 0-4.493-0.527-6.38-1.58-1.88-1.047-3.353-2.53-4.42-4.45-1.067-1.913-1.6-4.17-1.6-6.77v0c0-2.633 0.55-4.917 1.65-6.85 1.1-1.933 2.6-3.427 4.5-4.48 1.9-1.047 4.033-1.57 6.4-1.57v0c2.367 0 4.51 0.523 6.43 1.57 1.913 1.053 3.42 2.537 4.52 4.45 1.1 1.92 1.65 4.18 1.65 6.78v0c0 2.633-0.557 4.917-1.67 6.85-1.12 1.933-2.647 3.423-4.58 4.47-1.933 1.053-4.1 1.58-6.5 1.58zM59-3.95v0c1.333 0 2.583-0.31 3.75-0.93 1.167-0.613 2.127-1.553 2.88-2.82 0.747-1.267 1.12-2.883 1.12-4.85v0c0-1.933-0.36-3.523-1.08-4.77-0.713-1.253-1.653-2.19-2.82-2.81-1.167-0.613-2.417-0.92-3.75-0.92v0c-1.3 0-2.507 0.307-3.62 0.92-1.12 0.62-2.03 1.563-2.73 2.83-0.7 1.267-1.05 2.883-1.05 4.85v0c0 1.933 0.343 3.523 1.03 4.77 0.68 1.253 1.57 2.187 2.67 2.8 1.1 0.62 2.3 0.93 3.6 0.93zM77.55 0v-25h4.3l0.3 2.9c0.8-1.033 1.817-1.833 3.05-2.4 1.233-0.567 2.6-0.85 4.1-0.85v0c1.933 0 3.61 0.407 5.03 1.22 1.413 0.82 2.513 2.03 3.3 3.63 0.78 1.6 1.17 3.6 1.17 6v0 14.5h-4.7v-13.9c0-2.333-0.49-4.11-1.47-5.33-0.987-1.213-2.413-1.82-4.28-1.82v0c-1.933 0-3.433 0.623-4.5 1.87-1.067 1.253-1.6 3.097-1.6 5.53v0 13.65zM116.45 0.35v0c-2.4 0-4.523-0.56-6.37-1.68-1.853-1.113-3.307-2.653-4.36-4.62-1.047-1.967-1.57-4.217-1.57-6.75v0c0-2.433 0.517-4.6 1.55-6.5 1.033-1.9 2.457-3.4 4.27-4.5 1.82-1.1 3.88-1.65 6.18-1.65v0c2.333 0 4.4 0.507 6.2 1.52 1.8 1.02 3.2 2.437 4.2 4.25 1 1.82 1.483 3.913 1.45 6.28v0c0 0.4-0.017 0.807-0.05 1.22-0.033 0.42-0.083 0.88-0.15 1.38v0h-18.5c0.1 1.333 0.473 2.507 1.12 3.52 0.653 1.02 1.487 1.813 2.5 2.38 1.02 0.567 2.18 0.85 3.48 0.85v0c1.667 0 3.117-0.327 4.35-0.98 1.233-0.647 2.1-1.52 2.6-2.62v0l4.1 1.45c-1 2.033-2.457 3.617-4.37 4.75-1.92 1.133-4.13 1.7-6.63 1.7zM109.35-14.75h13.5c0-1.2-0.3-2.283-0.9-3.25-0.6-0.967-1.407-1.727-2.42-2.28-1.02-0.547-2.163-0.82-3.43-0.82v0c-1.133 0-2.177 0.273-3.13 0.82-0.947 0.553-1.743 1.303-2.39 2.25-0.653 0.953-1.063 2.047-1.23 3.28zM144.6 0.35v0c-2.4 0-4.527-0.56-6.38-1.68-1.847-1.113-3.293-2.653-4.34-4.62-1.053-1.967-1.58-4.217-1.58-6.75v0c0-2.433 0.517-4.6 1.55-6.5 1.033-1.9 2.46-3.4 4.28-4.5 1.813-1.1 3.87-1.65 6.17-1.65v0c2.333 0 4.4 0.507 6.2 1.52 1.8 1.02 3.2 2.437 4.2 4.25 1 1.82 1.483 3.913 1.45 6.28v0c0 0.4-0.017 0.807-0.05 1.22-0.033 0.42-0.083 0.88-0.15 1.38v0h-18.5c0.1 1.333 0.477 2.507 1.13 3.52 0.647 1.02 1.48 1.813 2.5 2.38 1.013 0.567 2.17 0.85 3.47 0.85v0c1.667 0 3.117-0.327 4.35-0.98 1.233-0.647 2.1-1.52 2.6-2.62v0l4.1 1.45c-1 2.033-2.457 3.617-4.37 4.75-1.92 1.133-4.13 1.7-6.63 1.7zM137.5-14.75h13.5c0-1.2-0.3-2.283-0.9-3.25-0.6-0.967-1.407-1.727-2.42-2.28-1.02-0.547-2.163-0.82-3.43-0.82v0c-1.133 0-2.173 0.273-3.12 0.82-0.953 0.553-1.757 1.303-2.41 2.25-0.647 0.953-1.053 2.047-1.22 3.28zM161.9 0v-25h4.3l0.3 3.35c0.7-0.867 1.51-1.593 2.43-2.18 0.913-0.58 1.913-0.987 3-1.22 1.08-0.233 2.203-0.217 3.37 0.05v0 4.45c-1.1-0.267-2.167-0.3-3.2-0.1-1.033 0.2-1.957 0.623-2.77 1.27-0.82 0.653-1.48 1.513-1.98 2.58-0.5 1.067-0.75 2.35-0.75 3.85v0 12.95zM180.8 0v-25h4.75v25zM183.2-29.4v0c-0.9 0-1.65-0.3-2.25-0.9-0.6-0.6-0.9-1.333-0.9-2.2v0c0-0.9 0.3-1.657 0.9-2.27 0.6-0.62 1.35-0.93 2.25-0.93v0c0.867 0 1.61 0.31 2.23 0.93 0.613 0.613 0.92 1.37 0.92 2.27v0c0 0.867-0.307 1.6-0.92 2.2-0.62 0.6-1.363 0.9-2.23 0.9zM193.45 0v-25h4.3l0.3 2.9c0.8-1.033 1.817-1.833 3.05-2.4 1.233-0.567 2.6-0.85 4.1-0.85v0c1.933 0 3.61 0.407 5.03 1.22 1.413 0.82 2.513 2.03 3.3 3.63 0.78 1.6 1.17 3.6 1.17 6v0 14.5h-4.7v-13.9c0-2.333-0.49-4.11-1.47-5.33-0.987-1.213-2.413-1.82-4.28-1.82v0c-1.933 0-3.433 0.623-4.5 1.87-1.067 1.253-1.6 3.097-1.6 5.53v0 13.65zM239.9-21.25l0.35-3.75h4.3v20.9c0 2.933-0.7 5.45-2.1 7.55-1.4 2.1-3.407 3.717-6.02 4.85-2.62 1.133-5.78 1.7-9.48 1.7v0l-0.75-4.15c4.467-0.1 7.85-0.99 10.15-2.67 2.3-1.687 3.45-4.113 3.45-7.28v0-0.25l0.55 0.05c-0.8 1.267-1.94 2.357-3.42 3.27-1.487 0.92-3.33 1.38-5.53 1.38v0c-2.233 0-4.207-0.533-5.92-1.6-1.72-1.067-3.053-2.567-4-4.5-0.953-1.933-1.43-4.183-1.43-6.75v0c0-2.567 0.477-4.817 1.43-6.75 0.947-1.933 2.28-3.433 4-4.5 1.713-1.067 3.687-1.6 5.92-1.6v0c1.367 0 2.593 0.183 3.68 0.55 1.08 0.367 2.02 0.857 2.82 1.47 0.8 0.62 1.467 1.313 2 2.08zM225.1-12.5v0c0 2.567 0.677 4.633 2.03 6.2 1.347 1.567 3.153 2.35 5.42 2.35v0c1.333 0 2.55-0.343 3.65-1.03 1.1-0.68 1.977-1.663 2.63-2.95 0.647-1.28 0.97-2.803 0.97-4.57v0c0-1.8-0.323-3.333-0.97-4.6-0.653-1.267-1.537-2.243-2.65-2.93-1.12-0.68-2.33-1.02-3.63-1.02v0c-2.267 0-4.073 0.783-5.42 2.35-1.353 1.567-2.03 3.633-2.03 6.2zM264.5-7.55l4.55-1.7c0.2 0.933 0.61 1.8 1.23 2.6 0.613 0.8 1.453 1.45 2.52 1.95 1.067 0.5 2.383 0.75 3.95 0.75v0c2.333 0 4.06-0.543 5.18-1.63 1.113-1.08 1.67-2.353 1.67-3.82v0c0-1.2-0.34-2.193-1.02-2.98-0.687-0.78-1.62-1.447-2.8-2-1.187-0.547-2.547-1.037-4.08-1.47v0c-1.333-0.4-2.64-0.827-3.92-1.28-1.287-0.447-2.447-1.01-3.48-1.69-1.033-0.687-1.85-1.573-2.45-2.66-0.6-1.08-0.9-2.437-0.9-4.07v0c0-2.033 0.483-3.783 1.45-5.25 0.967-1.467 2.327-2.593 4.08-3.38 1.747-0.78 3.77-1.17 6.07-1.17v0c1.933 0 3.667 0.277 5.2 0.83 1.533 0.547 2.827 1.327 3.88 2.34 1.047 1.02 1.82 2.247 2.32 3.68v0l-4.55 1.65c-0.2-0.733-0.617-1.427-1.25-2.08-0.633-0.647-1.433-1.17-2.4-1.57-0.967-0.4-2.05-0.6-3.25-0.6v0c-1.233-0.033-2.34 0.157-3.32 0.57-0.987 0.42-1.77 1.013-2.35 1.78-0.587 0.767-0.88 1.683-0.88 2.75v0c0 1.167 0.333 2.083 1 2.75 0.667 0.667 1.56 1.217 2.68 1.65 1.113 0.433 2.337 0.85 3.67 1.25v0c1.4 0.433 2.767 0.9 4.1 1.4 1.333 0.5 2.543 1.133 3.63 1.9 1.08 0.767 1.953 1.723 2.62 2.87 0.667 1.153 1 2.597 1 4.33v0c0 1.867-0.433 3.567-1.3 5.1-0.867 1.533-2.173 2.767-3.92 3.7-1.753 0.933-3.947 1.4-6.58 1.4v0c-2.167 0-4.117-0.333-5.85-1-1.733-0.667-3.157-1.593-4.27-2.78-1.12-1.18-1.863-2.553-2.23-4.12zM315.5-25v25h-4.3l-0.35-2.95c-0.8 1.067-1.81 1.883-3.03 2.45-1.213 0.567-2.57 0.85-4.07 0.85v0c-1.933 0-3.617-0.41-5.05-1.23-1.433-0.813-2.54-2.013-3.32-3.6-0.787-1.58-1.18-3.553-1.18-5.92v0-14.6h4.75v14c0 2.3 0.477 4.05 1.43 5.25 0.947 1.2 2.387 1.8 4.32 1.8v0c1.9 0 3.393-0.617 4.48-1.85 1.08-1.233 1.62-3.067 1.62-5.5v0-13.7zM321.2-6.4l4.25-1.5c0.233 1 0.633 1.783 1.2 2.35 0.567 0.567 1.243 0.973 2.03 1.22 0.78 0.253 1.603 0.38 2.47 0.38v0c1.5 0 2.667-0.3 3.5-0.9 0.833-0.6 1.25-1.35 1.25-2.25v0c0-0.767-0.257-1.377-0.77-1.83-0.52-0.447-1.207-0.803-2.06-1.07-0.847-0.267-1.753-0.517-2.72-0.75v0c-0.867-0.233-1.807-0.5-2.82-0.8-1.02-0.3-1.97-0.71-2.85-1.23-0.887-0.513-1.613-1.18-2.18-2-0.567-0.813-0.85-1.853-0.85-3.12v0c0-1.5 0.41-2.81 1.23-3.93 0.813-1.113 1.947-1.98 3.4-2.6 1.447-0.613 3.087-0.92 4.92-0.92v0c2.133 0 4.007 0.457 5.62 1.37 1.62 0.92 2.797 2.297 3.53 4.13v0l-4.25 1.4c-0.233-0.633-0.617-1.15-1.15-1.55-0.533-0.4-1.14-0.677-1.82-0.83-0.687-0.147-1.363-0.22-2.03-0.22v0c-1.267 0-2.317 0.25-3.15 0.75-0.833 0.5-1.25 1.233-1.25 2.2v0c0 0.533 0.133 0.973 0.4 1.32 0.267 0.353 0.643 0.637 1.13 0.85 0.48 0.22 1.053 0.413 1.72 0.58 0.667 0.167 1.383 0.35 2.15 0.55v0c1 0.3 2.017 0.623 3.05 0.97 1.033 0.353 1.983 0.797 2.85 1.33 0.867 0.533 1.567 1.233 2.1 2.1 0.533 0.867 0.817 1.933 0.85 3.2v0c0 1.467-0.407 2.767-1.22 3.9-0.82 1.133-1.97 2.023-3.45 2.67-1.487 0.653-3.247 0.98-5.28 0.98v0c-2.467 0-4.567-0.55-6.3-1.65-1.733-1.1-2.9-2.8-3.5-5.1zM344.65-25h3.6v-7h4.75v7h6.25v4.2h-6.25v12.3c0 1.533 0.31 2.617 0.93 3.25 0.613 0.633 1.397 0.993 2.35 1.08 0.947 0.08 1.937 0.053 2.97-0.08v0 4.05c-1.367 0.3-2.707 0.393-4.02 0.28-1.32-0.12-2.503-0.497-3.55-1.13-1.053-0.633-1.887-1.56-2.5-2.78-0.62-1.213-0.93-2.77-0.93-4.67v0-12.3h-3.6zM384.1 0h-4.35l-0.4-3.65c-0.767 1.267-1.757 2.24-2.97 2.92-1.22 0.687-2.797 1.03-4.73 1.03v0c-1.8 0-3.333-0.293-4.6-0.88-1.267-0.58-2.24-1.397-2.92-2.45-0.687-1.047-1.03-2.27-1.03-3.67v0c0-2.1 0.783-3.843 2.35-5.23 1.567-1.38 3.833-2.237 6.8-2.57v0l7.1-0.8v-1.95c0-1.067-0.433-1.977-1.3-2.73-0.867-0.747-2.117-1.12-3.75-1.12v0c-1.533 0-2.833 0.357-3.9 1.07-1.067 0.72-1.783 1.78-2.15 3.18v0l-4.2-1.5c0.633-2.2 1.877-3.917 3.73-5.15 1.847-1.233 4.087-1.85 6.72-1.85v0c3.133 0 5.517 0.783 7.15 2.35 1.633 1.567 2.45 3.633 2.45 6.2v0zM379.35-10.9v-0.55l-6.85 0.85c-1.467 0.2-2.567 0.607-3.3 1.22-0.733 0.62-1.1 1.43-1.1 2.43v0c0 0.933 0.36 1.707 1.08 2.32 0.713 0.62 1.72 0.93 3.02 0.93v0c1.6 0 2.933-0.3 4-0.9 1.067-0.6 1.86-1.443 2.38-2.53 0.513-1.08 0.77-2.337 0.77-3.77zM391.6 0v-25h4.75v25zM394-29.4v0c-0.9 0-1.65-0.3-2.25-0.9-0.6-0.6-0.9-1.333-0.9-2.2v0c0-0.9 0.3-1.657 0.9-2.27 0.6-0.62 1.35-0.93 2.25-0.93v0c0.867 0 1.61 0.31 2.23 0.93 0.613 0.613 0.92 1.37 0.92 2.27v0c0 0.867-0.307 1.6-0.92 2.2-0.62 0.6-1.363 0.9-2.23 0.9zM404.25 0v-25h4.3l0.3 2.9c0.8-1.033 1.817-1.833 3.05-2.4 1.233-0.567 2.6-0.85 4.1-0.85v0c1.933 0 3.61 0.407 5.03 1.22 1.413 0.82 2.513 2.03 3.3 3.63 0.78 1.6 1.17 3.6 1.17 6v0 14.5h-4.7v-13.9c0-2.333-0.49-4.11-1.47-5.33-0.987-1.213-2.413-1.82-4.28-1.82v0c-1.933 0-3.433 0.623-4.5 1.87-1.067 1.253-1.6 3.097-1.6 5.53v0 13.65zM451.9 0h-4.35l-0.4-3.65c-0.767 1.267-1.757 2.24-2.97 2.92-1.22 0.687-2.797 1.03-4.73 1.03v0c-1.8 0-3.333-0.293-4.6-0.88-1.267-0.58-2.24-1.397-2.92-2.45-0.687-1.047-1.03-2.27-1.03-3.67v0c0-2.1 0.783-3.843 2.35-5.23 1.567-1.38 3.833-2.237 6.8-2.57v0l7.1-0.8v-1.95c0-1.067-0.433-1.977-1.3-2.73-0.867-0.747-2.117-1.12-3.75-1.12v0c-1.533 0-2.833 0.357-3.9 1.07-1.067 0.72-1.783 1.78-2.15 3.18v0l-4.2-1.5c0.633-2.2 1.877-3.917 3.73-5.15 1.847-1.233 4.087-1.85 6.72-1.85v0c3.133 0 5.517 0.783 7.15 2.35 1.633 1.567 2.45 3.633 2.45 6.2v0zM447.15-10.9v-0.55l-6.85 0.85c-1.467 0.2-2.567 0.607-3.3 1.22-0.733 0.62-1.1 1.43-1.1 2.43v0c0 0.933 0.36 1.707 1.08 2.32 0.713 0.62 1.72 0.93 3.02 0.93v0c1.6 0 2.933-0.3 4-0.9 1.067-0.6 1.86-1.443 2.38-2.53 0.513-1.08 0.77-2.337 0.77-3.77zM463.35-20.6l-0.5-0.15c0.767-1.3 1.91-2.393 3.43-3.28 1.513-0.88 3.353-1.32 5.52-1.32v0c2.267 0 4.25 0.533 5.95 1.6 1.7 1.067 3.027 2.567 3.98 4.5 0.947 1.933 1.42 4.183 1.42 6.75v0c0 2.567-0.483 4.817-1.45 6.75-0.967 1.933-2.3 3.433-4 4.5-1.7 1.067-3.667 1.6-5.9 1.6v0c-2.033 0-3.757-0.4-5.17-1.2-1.42-0.8-2.53-1.767-3.33-2.9v0l-0.35 3.75h-4.3v-36h4.7zM478.05-12.5v0c0-2.567-0.673-4.633-2.02-6.2-1.353-1.567-3.113-2.35-5.28-2.35v0c-1.4 0-2.65 0.34-3.75 1.02-1.1 0.687-1.983 1.663-2.65 2.93-0.667 1.267-1 2.8-1 4.6v0c0 1.8 0.333 3.34 1 4.62 0.667 1.287 1.55 2.263 2.65 2.93 1.1 0.667 2.35 1 3.75 1v0c2.167 0 3.927-0.783 5.28-2.35 1.347-1.567 2.02-3.633 2.02-6.2zM489.4 0v-25h4.75v25zM491.8-29.4v0c-0.9 0-1.65-0.3-2.25-0.9-0.6-0.6-0.9-1.333-0.9-2.2v0c0-0.9 0.3-1.657 0.9-2.27 0.6-0.62 1.35-0.93 2.25-0.93v0c0.867 0 1.61 0.31 2.23 0.93 0.613 0.613 0.92 1.37 0.92 2.27v0c0 0.867-0.307 1.6-0.92 2.2-0.62 0.6-1.363 0.9-2.23 0.9zM502.05 0v-36h4.7v36zM514.65 0v-25h4.75v25zM517.05-29.4v0c-0.9 0-1.65-0.3-2.25-0.9-0.6-0.6-0.9-1.333-0.9-2.2v0c0-0.9 0.3-1.657 0.9-2.27 0.6-0.62 1.35-0.93 2.25-0.93v0c0.867 0 1.61 0.31 2.23 0.93 0.613 0.613 0.92 1.37 0.92 2.27v0c0 0.867-0.307 1.6-0.92 2.2-0.62 0.6-1.363 0.9-2.23 0.9zM525.3-25h3.6v-7h4.75v7h6.25v4.2h-6.25v12.3c0 1.533 0.31 2.617 0.93 3.25 0.613 0.633 1.397 0.993 2.35 1.08 0.947 0.08 1.937 0.053 2.97-0.08v0 4.05c-1.367 0.3-2.707 0.393-4.02 0.28-1.32-0.12-2.503-0.497-3.55-1.13-1.053-0.633-1.887-1.56-2.5-2.78-0.62-1.213-0.93-2.77-0.93-4.67v0-12.3h-3.6zM554.9-6.05l7.3-18.95h4.9l-14.5 35h-4.65l4.4-10.5-9.9-24.5h5.2zM567.65 7.1l3.6-13.6h5.45l-5.8 13.6zM595.65-17.5v0c0-2.633 0.45-5.043 1.35-7.23 0.9-2.18 2.15-4.063 3.75-5.65 1.6-1.58 3.46-2.803 5.58-3.67 2.113-0.867 4.403-1.3 6.87-1.3v0c3.5 0 6.627 0.817 9.38 2.45 2.747 1.633 4.837 3.983 6.27 7.05v0l-4 1.45c-0.8-1.567-1.817-2.833-3.05-3.8-1.233-0.967-2.583-1.683-4.05-2.15-1.467-0.467-2.95-0.7-4.45-0.7v0c-2.367 0-4.507 0.55-6.42 1.65-1.92 1.1-3.42 2.667-4.5 4.7-1.087 2.033-1.63 4.433-1.63 7.2v0c0 2.733 0.543 5.117 1.63 7.15 1.08 2.033 2.58 3.607 4.5 4.72 1.913 1.12 4.053 1.68 6.42 1.68v0c1.533 0 3.05-0.25 4.55-0.75 1.5-0.5 2.9-1.31 4.2-2.43 1.3-1.113 2.367-2.57 3.2-4.37v0l4 1.4c-1.5 3.533-3.65 6.157-6.45 7.87-2.8 1.72-6 2.58-9.6 2.58v0c-2.467 0-4.757-0.433-6.87-1.3-2.12-0.867-3.98-2.1-5.58-3.7-1.6-1.6-2.85-3.493-3.75-5.68-0.9-2.18-1.35-4.57-1.35-7.17zM656.35-25v25h-4.3l-0.35-2.95c-0.8 1.067-1.807 1.883-3.02 2.45-1.22 0.567-2.58 0.85-4.08 0.85v0c-1.933 0-3.617-0.41-5.05-1.23-1.433-0.813-2.54-2.013-3.32-3.6-0.787-1.58-1.18-3.553-1.18-5.92v0-14.6h4.75v14c0 2.3 0.477 4.05 1.43 5.25 0.947 1.2 2.387 1.8 4.32 1.8v0c1.9 0 3.393-0.617 4.48-1.85 1.08-1.233 1.62-3.067 1.62-5.5v0-13.7zM663.5 0v-36h4.7v36zM673.35-25h3.6v-7h4.75v7h6.25v4.2h-6.25v12.3c0 1.533 0.31 2.617 0.93 3.25 0.613 0.633 1.397 0.993 2.35 1.08 0.947 0.08 1.937 0.053 2.97-0.08v0 4.05c-1.367 0.3-2.707 0.393-4.02 0.28-1.32-0.12-2.503-0.497-3.55-1.13-1.053-0.633-1.887-1.56-2.5-2.78-0.62-1.213-0.93-2.77-0.93-4.67v0-12.3h-3.6zM693.95 0v-25h4.75v25zM696.35-29.4v0c-0.9 0-1.65-0.3-2.25-0.9-0.6-0.6-0.9-1.333-0.9-2.2v0c0-0.9 0.3-1.657 0.9-2.27 0.6-0.62 1.35-0.93 2.25-0.93v0c0.867 0 1.61 0.31 2.23 0.93 0.613 0.613 0.92 1.37 0.92 2.27v0c0 0.867-0.307 1.6-0.92 2.2-0.62 0.6-1.363 0.9-2.23 0.9zM704.2-25h5.1l7.2 19.95 7.25-19.95h5l-9.75 25h-5.1zM752.6 0h-4.35l-0.4-3.65c-0.767 1.267-1.757 2.24-2.97 2.92-1.22 0.687-2.797 1.03-4.73 1.03v0c-1.8 0-3.333-0.293-4.6-0.88-1.267-0.58-2.24-1.397-2.92-2.45-0.687-1.047-1.03-2.27-1.03-3.67v0c0-2.1 0.783-3.843 2.35-5.23 1.567-1.38 3.833-2.237 6.8-2.57v0l7.1-0.8v-1.95c0-1.067-0.433-1.977-1.3-2.73-0.867-0.747-2.117-1.12-3.75-1.12v0c-1.533 0-2.833 0.357-3.9 1.07-1.067 0.72-1.783 1.78-2.15 3.18v0l-4.2-1.5c0.633-2.2 1.877-3.917 3.73-5.15 1.847-1.233 4.087-1.85 6.72-1.85v0c3.133 0 5.517 0.783 7.15 2.35 1.633 1.567 2.45 3.633 2.45 6.2v0zM747.85-10.9v-0.55l-6.85 0.85c-1.467 0.2-2.567 0.607-3.3 1.22-0.733 0.62-1.1 1.43-1.1 2.43v0c0 0.933 0.36 1.707 1.08 2.32 0.713 0.62 1.72 0.93 3.02 0.93v0c1.6 0 2.933-0.3 4-0.9 1.067-0.6 1.86-1.443 2.38-2.53 0.513-1.08 0.77-2.337 0.77-3.77zM757.35-25h3.6v-7h4.75v7h6.25v4.2h-6.25v12.3c0 1.533 0.31 2.617 0.93 3.25 0.613 0.633 1.397 0.993 2.35 1.08 0.947 0.08 1.937 0.053 2.97-0.08v0 4.05c-1.367 0.3-2.707 0.393-4.02 0.28-1.32-0.12-2.503-0.497-3.55-1.13-1.053-0.633-1.887-1.56-2.5-2.78-0.62-1.213-0.93-2.77-0.93-4.67v0-12.3h-3.6zM777.95 0v-25h4.75v25zM780.35-29.4v0c-0.9 0-1.65-0.3-2.25-0.9-0.6-0.6-0.9-1.333-0.9-2.2v0c0-0.9 0.3-1.657 0.9-2.27 0.6-0.62 1.35-0.93 2.25-0.93v0c0.867 0 1.61 0.31 2.23 0.93 0.613 0.613 0.92 1.37 0.92 2.27v0c0 0.867-0.307 1.6-0.92 2.2-0.62 0.6-1.363 0.9-2.23 0.9zM790.6 0v-25h4.3l0.3 2.9c0.8-1.033 1.817-1.833 3.05-2.4 1.233-0.567 2.6-0.85 4.1-0.85v0c1.933 0 3.61 0.407 5.03 1.22 1.413 0.82 2.513 2.03 3.3 3.63 0.78 1.6 1.17 3.6 1.17 6v0 14.5h-4.7v-13.9c0-2.333-0.49-4.11-1.47-5.33-0.987-1.213-2.413-1.82-4.28-1.82v0c-1.933 0-3.433 0.623-4.5 1.87-1.067 1.253-1.6 3.097-1.6 5.53v0 13.65zM837.05-21.25l0.35-3.75h4.3v20.9c0 2.933-0.7 5.45-2.1 7.55-1.4 2.1-3.407 3.717-6.02 4.85-2.62 1.133-5.78 1.7-9.48 1.7v0l-0.75-4.15c4.467-0.1 7.85-0.99 10.15-2.67 2.3-1.687 3.45-4.113 3.45-7.28v0-0.25l0.55 0.05c-0.8 1.267-1.94 2.357-3.42 3.27-1.487 0.92-3.33 1.38-5.53 1.38v0c-2.233 0-4.207-0.533-5.92-1.6-1.72-1.067-3.053-2.567-4-4.5-0.953-1.933-1.43-4.183-1.43-6.75v0c0-2.567 0.477-4.817 1.43-6.75 0.947-1.933 2.28-3.433 4-4.5 1.713-1.067 3.687-1.6 5.92-1.6v0c1.367 0 2.593 0.183 3.68 0.55 1.08 0.367 2.02 0.857 2.82 1.47 0.8 0.62 1.467 1.313 2 2.08zM822.25-12.5v0c0 2.567 0.677 4.633 2.03 6.2 1.347 1.567 3.153 2.35 5.42 2.35v0c1.333 0 2.55-0.343 3.65-1.03 1.1-0.68 1.977-1.663 2.63-2.95 0.647-1.28 0.97-2.803 0.97-4.57v0c0-1.8-0.323-3.333-0.97-4.6-0.653-1.267-1.537-2.243-2.65-2.93-1.12-0.68-2.33-1.02-3.63-1.02v0c-2.267 0-4.073 0.783-5.42 2.35-1.353 1.567-2.03 3.633-2.03 6.2zM883.3-24.55v0c0-1.9-0.567-3.417-1.7-4.55-1.133-1.133-2.933-1.7-5.4-1.7v0h-8v12.45h8.05c1.633 0 2.967-0.26 4-0.78 1.033-0.513 1.8-1.237 2.3-2.17 0.5-0.933 0.75-2.017 0.75-3.25zM863.2-35h13c2.767 0 5.043 0.473 6.83 1.42 1.78 0.953 3.113 2.213 4 3.78 0.88 1.567 1.32 3.317 1.32 5.25v0c0 1.267-0.217 2.517-0.65 3.75-0.433 1.233-1.133 2.357-2.1 3.37-0.967 1.02-2.223 1.82-3.77 2.4-1.553 0.587-3.413 0.88-5.58 0.88v0h-8.05v14.15h-5zM874.1-15.85h5.3l9.65 15.85h-5.65zM905.5 0.35v0c-2.4 0-4.523-0.56-6.37-1.68-1.853-1.113-3.303-2.653-4.35-4.62-1.053-1.967-1.58-4.217-1.58-6.75v0c0-2.433 0.517-4.6 1.55-6.5 1.033-1.9 2.46-3.4 4.28-4.5 1.813-1.1 3.87-1.65 6.17-1.65v0c2.333 0 4.4 0.507 6.2 1.52 1.8 1.02 3.2 2.437 4.2 4.25 1 1.82 1.483 3.913 1.45 6.28v0c0 0.4-0.017 0.807-0.05 1.22-0.033 0.42-0.083 0.88-0.15 1.38v0h-18.5c0.1 1.333 0.477 2.507 1.13 3.52 0.647 1.02 1.48 1.813 2.5 2.38 1.013 0.567 2.17 0.85 3.47 0.85v0c1.667 0 3.117-0.327 4.35-0.98 1.233-0.647 2.1-1.52 2.6-2.62v0l4.1 1.45c-1 2.033-2.457 3.617-4.37 4.75-1.92 1.133-4.13 1.7-6.63 1.7zM898.4-14.75h13.5c0-1.2-0.3-2.283-0.9-3.25-0.6-0.967-1.407-1.727-2.42-2.28-1.02-0.547-2.163-0.82-3.43-0.82v0c-1.133 0-2.173 0.273-3.12 0.82-0.953 0.553-1.753 1.303-2.4 2.25-0.653 0.953-1.063 2.047-1.23 3.28zM921.35-6.4l4.25-1.5c0.233 1 0.633 1.783 1.2 2.35 0.567 0.567 1.243 0.973 2.03 1.22 0.78 0.253 1.603 0.38 2.47 0.38v0c1.5 0 2.667-0.3 3.5-0.9 0.833-0.6 1.25-1.35 1.25-2.25v0c0-0.767-0.257-1.377-0.77-1.83-0.52-0.447-1.203-0.803-2.05-1.07-0.853-0.267-1.763-0.517-2.73-0.75v0c-0.867-0.233-1.807-0.5-2.82-0.8-1.02-0.3-1.97-0.71-2.85-1.23-0.887-0.513-1.613-1.18-2.18-2-0.567-0.813-0.85-1.853-0.85-3.12v0c0-1.5 0.41-2.81 1.23-3.93 0.813-1.113 1.947-1.98 3.4-2.6 1.447-0.613 3.087-0.92 4.92-0.92v0c2.133 0 4.01 0.457 5.63 1.37 1.613 0.92 2.787 2.297 3.52 4.13v0l-4.25 1.4c-0.233-0.633-0.617-1.15-1.15-1.55-0.533-0.4-1.14-0.677-1.82-0.83-0.687-0.147-1.363-0.22-2.03-0.22v0c-1.267 0-2.317 0.25-3.15 0.75-0.833 0.5-1.25 1.233-1.25 2.2v0c0 0.533 0.133 0.973 0.4 1.32 0.267 0.353 0.643 0.637 1.13 0.85 0.48 0.22 1.053 0.413 1.72 0.58 0.667 0.167 1.383 0.35 2.15 0.55v0c1 0.3 2.017 0.623 3.05 0.97 1.033 0.353 1.983 0.797 2.85 1.33 0.867 0.533 1.567 1.233 2.1 2.1 0.533 0.867 0.817 1.933 0.85 3.2v0c0 1.467-0.407 2.767-1.22 3.9-0.82 1.133-1.97 2.023-3.45 2.67-1.487 0.653-3.247 0.98-5.28 0.98v0c-2.467 0-4.567-0.55-6.3-1.65-1.733-1.1-2.9-2.8-3.5-5.1zM947.55 0v-25h4.75v25zM949.95-29.4v0c-0.9 0-1.65-0.3-2.25-0.9-0.6-0.6-0.9-1.333-0.9-2.2v0c0-0.9 0.3-1.657 0.9-2.27 0.6-0.62 1.35-0.93 2.25-0.93v0c0.867 0 1.61 0.31 2.23 0.93 0.613 0.613 0.92 1.37 0.92 2.27v0c0 0.867-0.307 1.6-0.92 2.2-0.62 0.6-1.363 0.9-2.23 0.9zM960.2 0v-36h4.7v36zM972.8 0v-25h4.75v25zM975.2-29.4v0c-0.9 0-1.65-0.3-2.25-0.9-0.6-0.6-0.9-1.333-0.9-2.2v0c0-0.9 0.3-1.657 0.9-2.27 0.6-0.62 1.35-0.93 2.25-0.93v0c0.867 0 1.61 0.31 2.23 0.93 0.613 0.613 0.92 1.37 0.92 2.27v0c0 0.867-0.307 1.6-0.92 2.2-0.62 0.6-1.363 0.9-2.23 0.9zM996.3 0.35v0c-2.4 0-4.523-0.56-6.37-1.68-1.853-1.113-3.303-2.653-4.35-4.62-1.053-1.967-1.58-4.217-1.58-6.75v0c0-2.433 0.517-4.6 1.55-6.5 1.033-1.9 2.46-3.4 4.28-4.5 1.813-1.1 3.87-1.65 6.17-1.65v0c2.333 0 4.4 0.507 6.2 1.52 1.8 1.02 3.2 2.437 4.2 4.25 1 1.82 1.483 3.913 1.45 6.28v0c0 0.4-0.017 0.807-0.05 1.22-0.033 0.42-0.083 0.88-0.15 1.38v0h-18.5c0.1 1.333 0.473 2.507 1.12 3.52 0.653 1.02 1.487 1.813 2.5 2.38 1.02 0.567 2.18 0.85 3.48 0.85v0c1.667 0 3.117-0.327 4.35-0.98 1.233-0.647 2.1-1.52 2.6-2.62v0l4.1 1.45c-1 2.033-2.457 3.617-4.37 4.75-1.92 1.133-4.13 1.7-6.63 1.7zM989.2-14.75h13.5c0-1.2-0.3-2.283-0.9-3.25-0.6-0.967-1.407-1.727-2.42-2.28-1.02-0.547-2.163-0.82-3.43-0.82v0c-1.133 0-2.173 0.273-3.12 0.82-0.953 0.553-1.753 1.303-2.4 2.25-0.653 0.953-1.063 2.047-1.23 3.28zM1013.6 0v-25h4.3l0.3 2.9c0.8-1.033 1.817-1.833 3.05-2.4 1.233-0.567 2.6-0.85 4.1-0.85v0c1.933 0 3.61 0.407 5.03 1.22 1.413 0.82 2.51 2.03 3.29 3.63 0.787 1.6 1.18 3.6 1.18 6v0 14.5h-4.7v-13.9c0-2.333-0.493-4.11-1.48-5.33-0.98-1.213-2.403-1.82-4.27-1.82v0c-1.933 0-3.433 0.623-4.5 1.87-1.067 1.253-1.6 3.097-1.6 5.53v0 13.65zM1052.35 0.35v0c-2.4 0-4.517-0.543-6.35-1.63-1.833-1.08-3.26-2.57-4.28-4.47-1.013-1.9-1.52-4.117-1.52-6.65v0c0-2.567 0.517-4.817 1.55-6.75 1.033-1.933 2.467-3.45 4.3-4.55 1.833-1.1 3.967-1.65 6.4-1.65v0c2.567 0 4.823 0.6 6.77 1.8 1.953 1.2 3.363 2.817 4.23 4.85v0l-4.25 1.5c-0.5-1.167-1.343-2.1-2.53-2.8-1.18-0.7-2.52-1.05-4.02-1.05v0c-1.533 0-2.85 0.357-3.95 1.07-1.1 0.72-1.95 1.72-2.55 3-0.6 1.287-0.9 2.797-0.9 4.53v0c0 2.6 0.667 4.667 2 6.2 1.333 1.533 3.133 2.3 5.4 2.3v0c1.5 0 2.84-0.333 4.02-1 1.187-0.667 2.08-1.583 2.68-2.75v0l4.2 1.5c-0.933 2-2.4 3.59-4.4 4.77-2 1.187-4.267 1.78-6.8 1.78zM1080.15 0.35v0c-2.4 0-4.523-0.56-6.37-1.68-1.853-1.113-3.307-2.653-4.36-4.62-1.047-1.967-1.57-4.217-1.57-6.75v0c0-2.433 0.517-4.6 1.55-6.5 1.033-1.9 2.457-3.4 4.27-4.5 1.82-1.1 3.88-1.65 6.18-1.65v0c2.333 0 4.4 0.507 6.2 1.52 1.8 1.02 3.2 2.437 4.2 4.25 1 1.82 1.483 3.913 1.45 6.28v0c0 0.4-0.017 0.807-0.05 1.22-0.033 0.42-0.083 0.88-0.15 1.38v0h-18.5c0.1 1.333 0.477 2.507 1.13 3.52 0.647 1.02 1.48 1.813 2.5 2.38 1.013 0.567 2.17 0.85 3.47 0.85v0c1.667 0 3.117-0.327 4.35-0.98 1.233-0.647 2.1-1.52 2.6-2.62v0l4.1 1.45c-1 2.033-2.457 3.617-4.37 4.75-1.92 1.133-4.13 1.7-6.63 1.7zM1073.05-14.75h13.5c0-1.2-0.3-2.283-0.9-3.25-0.6-0.967-1.407-1.727-2.42-2.28-1.02-0.547-2.163-0.82-3.43-0.82v0c-1.133 0-2.177 0.273-3.13 0.82-0.947 0.553-1.743 1.303-2.39 2.25-0.653 0.953-1.063 2.047-1.23 3.28z" fill="#89939e" fill-rule="nonzero" stroke="none" stroke-width="1" stroke-linecap="butt" stroke-linejoin="miter" stroke-miterlimit="10" stroke-dasharray="" stroke-dashoffset="0" font-family="none" font-weight="none" font-size="none" text-anchor="none" style="mix-blend-mode: normal" data-fill-palette-color="secondary" id="text-1"></path></g></g><g transform="matrix(1,0,0,1,29.33176499999999,76.97206241380141)"><svg viewBox="0 0 316.416 88.6696851723972" height="88.6696851723972" width="316.416"><g><svg viewBox="0 0 469.4922582426227 131.5664528002729" height="88.6696851723972" width="316.416"><g><rect width="4.4775616079834615" height="126.9333842742623" x="328.1373654659253" y="2.316534263005309" fill="#636365" opacity="1" stroke-width="0" stroke="transparent" fill-opacity="1" class="rect-yte-0" data-fill-palette-color="primary" rx="1%" id="yte-0" data-palette-color="#636365"></rect></g><g transform="matrix(1,0,0,1,0,12.894316285860498)"><svg viewBox="0 0 316.416 105.77782022855192" height="105.77782022855192" width="316.416"><g id="textblocktransform"><svg viewBox="0 0 316.416 105.77782022855192" height="105.77782022855192" width="316.416" id="textblock"><g><svg viewBox="0 0 316.416 105.77782022855192" height="105.77782022855192" width="316.416"><g transform="matrix(1,0,0,1,0,0)"><svg width="316.416" viewBox="57.72 -36 293.15 85.35" height="105.77782022855192" data-palette-color="#636365"><svg></svg><svg></svg><g class="wordmark-text-0" data-fill-palette-color="primary" id="text-0"><path transform="translate(54.07,0)" d="M27.55-35v4.95h-17.95v9.85h13.45v4.95h-13.45v10.3h17.95v4.95h-23.9v-35zM44.4 0.35v0c-2.4 0-4.517-0.543-6.35-1.63-1.833-1.08-3.26-2.57-4.28-4.47-1.013-1.9-1.52-4.117-1.52-6.65v0c0-2.567 0.517-4.817 1.55-6.75 1.033-1.933 2.477-3.45 4.33-4.55 1.847-1.1 3.987-1.65 6.42-1.65v0c2.567 0 4.85 0.607 6.85 1.82 2 1.22 3.433 2.863 4.3 4.93v0l-5.15 1.7c-0.433-1.033-1.173-1.86-2.22-2.48-1.053-0.613-2.247-0.92-3.58-0.92v0c-1.333 0-2.483 0.323-3.45 0.97-0.967 0.653-1.707 1.563-2.22 2.73-0.52 1.167-0.78 2.55-0.78 4.15v0c0 2.4 0.583 4.29 1.75 5.67 1.167 1.387 2.767 2.08 4.8 2.08v0c1.3 0 2.467-0.293 3.5-0.88 1.033-0.58 1.833-1.403 2.4-2.47v0l5.05 1.75c-0.967 2.033-2.473 3.65-4.52 4.85-2.053 1.2-4.347 1.8-6.88 1.8zM72.25 0.35v0c-2.4 0-4.55-0.527-6.45-1.58-1.9-1.047-3.383-2.53-4.45-4.45-1.067-1.913-1.6-4.17-1.6-6.77v0c0-2.633 0.55-4.917 1.65-6.85 1.1-1.933 2.617-3.427 4.55-4.48 1.933-1.047 4.083-1.57 6.45-1.57v0c2.4 0 4.56 0.523 6.48 1.57 1.913 1.053 3.437 2.537 4.57 4.45 1.133 1.92 1.7 4.18 1.7 6.78v0c0 2.633-0.577 4.917-1.73 6.85-1.147 1.933-2.693 3.423-4.64 4.47-1.953 1.053-4.13 1.58-6.53 1.58zM72.2-4.7v0c1.167 0 2.277-0.283 3.33-0.85 1.047-0.567 1.903-1.427 2.57-2.58 0.667-1.147 1-2.62 1-4.42v0c0-1.733-0.317-3.177-0.95-4.33-0.633-1.147-1.467-2.003-2.5-2.57-1.033-0.567-2.15-0.85-3.35-0.85v0c-1.167 0-2.24 0.283-3.22 0.85-0.987 0.567-1.78 1.423-2.38 2.57-0.6 1.153-0.9 2.63-0.9 4.43v0c0 1.733 0.29 3.173 0.87 4.32 0.587 1.153 1.363 2.013 2.33 2.58 0.967 0.567 2.033 0.85 3.2 0.85zM87.7-25h6.05l6.55 19 6.6-19h5.95l-9.5 25h-6.2zM136.85 0h-5.2l-0.5-3.05c-0.8 1.067-1.75 1.883-2.85 2.45-1.1 0.567-2.567 0.85-4.4 0.85v0c-1.733 0-3.233-0.293-4.5-0.88-1.267-0.58-2.24-1.397-2.92-2.45-0.687-1.047-1.03-2.27-1.03-3.67v0c0-2.1 0.777-3.86 2.33-5.28 1.547-1.413 3.82-2.287 6.82-2.62v0l6.55-0.7v-1.95c0-0.8-0.35-1.527-1.05-2.18-0.7-0.647-1.817-0.97-3.35-0.97v0c-1.333 0-2.49 0.323-3.47 0.97-0.987 0.653-1.647 1.63-1.98 2.93v0l-4.9-1.8c0.633-2.2 1.893-3.917 3.78-5.15 1.88-1.233 4.17-1.85 6.87-1.85v0c3.267 0 5.717 0.817 7.35 2.45 1.633 1.633 2.45 3.717 2.45 6.25v0zM131.15-10.65v-0.35l-6 0.75c-1.267 0.167-2.217 0.523-2.85 1.07-0.633 0.553-0.95 1.247-0.95 2.08v0c0 0.767 0.31 1.423 0.93 1.97 0.613 0.553 1.453 0.83 2.52 0.83v0c1.367 0 2.527-0.25 3.48-0.75 0.947-0.5 1.663-1.217 2.15-2.15 0.48-0.933 0.72-2.083 0.72-3.45zM143.1 0v-25h5.1l0.4 2.45c0.833-0.867 1.823-1.55 2.97-2.05 1.153-0.5 2.397-0.75 3.73-0.75v0c1.967 0 3.66 0.407 5.08 1.22 1.413 0.82 2.503 2.02 3.27 3.6 0.767 1.587 1.15 3.563 1.15 5.93v0 14.6h-5.65v-13.85c0-2.1-0.423-3.683-1.27-4.75-0.853-1.067-2.13-1.6-3.83-1.6v0c-1.733 0-3.05 0.543-3.95 1.63-0.9 1.08-1.35 2.67-1.35 4.77v0 13.8zM188.95-21.9l0.4-3.1h5.1v21.25c0 2.833-0.7 5.277-2.1 7.33-1.4 2.047-3.417 3.63-6.05 4.75-2.633 1.113-5.8 1.67-9.5 1.67v0l-0.85-4.85c4.2-0.1 7.39-0.9 9.57-2.4 2.187-1.5 3.28-3.65 3.28-6.45v0-0.05h0.65c-0.767 1.133-1.873 2.1-3.32 2.9-1.453 0.8-3.18 1.2-5.18 1.2v0c-2.2 0-4.15-0.533-5.85-1.6-1.7-1.067-3.023-2.567-3.97-4.5-0.953-1.933-1.43-4.183-1.43-6.75v0c0-2.567 0.477-4.817 1.43-6.75 0.947-1.933 2.27-3.433 3.97-4.5 1.7-1.067 3.65-1.6 5.85-1.6v0c1.233 0 2.357 0.157 3.37 0.47 1.02 0.32 1.92 0.737 2.7 1.25 0.787 0.52 1.43 1.097 1.93 1.73zM175.75-12.5v0c0 2.3 0.6 4.167 1.8 5.6 1.2 1.433 2.8 2.15 4.8 2.15v0c1.167 0 2.233-0.31 3.2-0.93 0.967-0.613 1.75-1.503 2.35-2.67 0.6-1.167 0.9-2.55 0.9-4.15v0c0-1.667-0.3-3.077-0.9-4.23-0.6-1.147-1.393-2.02-2.38-2.62-0.98-0.6-2.037-0.9-3.17-0.9v0c-2 0-3.6 0.707-4.8 2.12-1.2 1.42-1.8 3.297-1.8 5.63zM222.5-25v25h-5.2l-0.35-2.5c-0.833 0.9-1.833 1.6-3 2.1-1.167 0.5-2.4 0.75-3.7 0.75v0c-1.967 0-3.657-0.41-5.07-1.23-1.42-0.813-2.513-2.013-3.28-3.6-0.767-1.58-1.15-3.537-1.15-5.87v0-14.65h5.65v13.9c0 2.067 0.417 3.64 1.25 4.72 0.833 1.087 2.117 1.63 3.85 1.63v0c1.667 0 2.977-0.543 3.93-1.63 0.947-1.08 1.42-2.687 1.42-4.82v0-13.8zM249.2 0h-5.2l-0.5-3.05c-0.8 1.067-1.75 1.883-2.85 2.45-1.1 0.567-2.567 0.85-4.4 0.85v0c-1.733 0-3.233-0.293-4.5-0.88-1.267-0.58-2.243-1.397-2.93-2.45-0.68-1.047-1.02-2.27-1.02-3.67v0c0-2.1 0.777-3.86 2.33-5.28 1.547-1.413 3.82-2.287 6.82-2.62v0l6.55-0.7v-1.95c0-0.8-0.35-1.527-1.05-2.18-0.7-0.647-1.817-0.97-3.35-0.97v0c-1.333 0-2.49 0.323-3.47 0.97-0.987 0.653-1.647 1.63-1.98 2.93v0l-4.9-1.8c0.633-2.2 1.893-3.917 3.78-5.15 1.88-1.233 4.17-1.85 6.87-1.85v0c3.267 0 5.717 0.817 7.35 2.45 1.633 1.633 2.45 3.717 2.45 6.25v0zM243.5-10.65v-0.35l-6 0.75c-1.267 0.167-2.217 0.523-2.85 1.07-0.633 0.553-0.95 1.247-0.95 2.08v0c0 0.767 0.31 1.423 0.93 1.97 0.613 0.553 1.453 0.83 2.52 0.83v0c1.367 0 2.527-0.25 3.48-0.75 0.947-0.5 1.663-1.217 2.15-2.15 0.48-0.933 0.72-2.083 0.72-3.45zM255.45 0v-25h5.1l0.45 3.1c0.667-0.833 1.45-1.527 2.35-2.08 0.9-0.547 1.873-0.92 2.92-1.12 1.053-0.2 2.113-0.167 3.18 0.1v0 5.2c-0.867-0.3-1.79-0.377-2.77-0.23-0.987 0.153-1.897 0.52-2.73 1.1-0.833 0.587-1.517 1.403-2.05 2.45-0.533 1.053-0.8 2.347-0.8 3.88v0 12.6zM291.8-21.3v0l-0.65 0.15v-14.85h5.65v36h-5.1l-0.4-3.1c-0.867 0.967-1.967 1.783-3.3 2.45-1.333 0.667-2.917 1-4.75 1v0c-2.233 0-4.19-0.533-5.87-1.6-1.687-1.067-2.997-2.567-3.93-4.5-0.933-1.933-1.4-4.183-1.4-6.75v0c0-2.567 0.467-4.817 1.4-6.75 0.933-1.933 2.243-3.433 3.93-4.5 1.68-1.067 3.637-1.6 5.87-1.6v0c1.967 0 3.683 0.39 5.15 1.17 1.467 0.787 2.6 1.747 3.4 2.88zM278.1-12.5v0c0 2.3 0.6 4.167 1.8 5.6 1.2 1.433 2.767 2.15 4.7 2.15v0c1.167 0 2.24-0.3 3.22-0.9 0.987-0.6 1.79-1.477 2.41-2.63 0.613-1.147 0.92-2.553 0.92-4.22v0c0-1.667-0.307-3.077-0.92-4.23-0.62-1.147-1.423-2.02-2.41-2.62-0.98-0.6-2.053-0.9-3.22-0.9v0c-1.933 0-3.5 0.717-4.7 2.15-1.2 1.433-1.8 3.3-1.8 5.6z" fill="#636365" fill-rule="nonzero" stroke="none" stroke-width="1" stroke-linecap="butt" stroke-linejoin="miter" stroke-miterlimit="10" stroke-dasharray="" stroke-dashoffset="0" font-family="none" font-weight="none" font-size="none" text-anchor="none" style="mix-blend-mode: normal" data-fill-palette-color="primary" opacity="1"></path><path transform="translate(100.33,49)" d="M17.7-6.05l10.2-28.95h6.3l-13.05 35h-6.95l-13-35h6.3zM45.95 0.35v0c-2.5 0-4.69-0.55-6.57-1.65-1.887-1.1-3.353-2.633-4.4-4.6-1.053-1.967-1.58-4.233-1.58-6.8v0c0-2.433 0.517-4.6 1.55-6.5 1.033-1.9 2.467-3.4 4.3-4.5 1.833-1.1 3.917-1.65 6.25-1.65v0c2.367 0 4.45 0.517 6.25 1.55 1.8 1.033 3.21 2.473 4.23 4.32 1.013 1.853 1.52 3.997 1.52 6.43v0c0 0.4-0.017 0.823-0.05 1.27-0.033 0.453-0.083 0.93-0.15 1.43v0h-17.8c0.167 1.167 0.543 2.173 1.13 3.02 0.58 0.853 1.32 1.513 2.22 1.98 0.9 0.467 1.933 0.7 3.1 0.7v0c1.4 0 2.66-0.283 3.78-0.85 1.113-0.567 1.887-1.317 2.32-2.25v0l4.95 1.65c-1 2-2.483 3.573-4.45 4.72-1.967 1.153-4.167 1.73-6.6 1.73zM39.6-14.95h11.75c-0.033-1.033-0.317-1.967-0.85-2.8-0.533-0.833-1.233-1.493-2.1-1.98-0.867-0.48-1.833-0.72-2.9-0.72v0c-0.933 0-1.817 0.233-2.65 0.7-0.833 0.467-1.54 1.11-2.12 1.93-0.587 0.813-0.963 1.77-1.13 2.87zM62.85 0v-25h5.1l0.4 2.45c0.833-0.867 1.827-1.55 2.98-2.05 1.147-0.5 2.387-0.75 3.72-0.75v0c1.967 0 3.66 0.407 5.08 1.22 1.413 0.82 2.503 2.02 3.27 3.6 0.767 1.587 1.15 3.563 1.15 5.93v0 14.6h-5.65v-13.85c0-2.1-0.423-3.683-1.27-4.75-0.853-1.067-2.13-1.6-3.83-1.6v0c-1.733 0-3.05 0.543-3.95 1.63-0.9 1.08-1.35 2.67-1.35 4.77v0 13.8zM88.9-25h3.5v-7h5.75v7h5.85v4.95h-5.85v11.1c0 1.5 0.283 2.54 0.85 3.12 0.567 0.587 1.31 0.903 2.23 0.95 0.913 0.053 1.837 0.013 2.77-0.12v0 4.8c-1.433 0.3-2.84 0.393-4.22 0.28-1.387-0.12-2.63-0.503-3.73-1.15-1.1-0.653-1.983-1.613-2.65-2.88-0.667-1.267-1-2.933-1-5v0-11.1h-3.5zM130.25-25v25h-5.2l-0.35-2.5c-0.833 0.9-1.833 1.6-3 2.1-1.167 0.5-2.4 0.75-3.7 0.75v0c-1.967 0-3.66-0.41-5.08-1.23-1.413-0.813-2.503-2.013-3.27-3.6-0.767-1.58-1.15-3.537-1.15-5.87v0-14.65h5.65v13.9c0 2.067 0.417 3.64 1.25 4.72 0.833 1.087 2.117 1.63 3.85 1.63v0c1.667 0 2.973-0.543 3.92-1.63 0.953-1.08 1.43-2.687 1.43-4.82v0-13.8zM136.85 0v-25h5.1l0.45 3.1c0.667-0.833 1.45-1.527 2.35-2.08 0.9-0.547 1.877-0.92 2.93-1.12 1.047-0.2 2.103-0.167 3.17 0.1v0 5.2c-0.867-0.3-1.793-0.377-2.78-0.23-0.98 0.153-1.887 0.52-2.72 1.1-0.833 0.587-1.517 1.403-2.05 2.45-0.533 1.053-0.8 2.347-0.8 3.88v0 12.6zM166 0.35v0c-2.5 0-4.693-0.55-6.58-1.65-1.88-1.1-3.347-2.633-4.4-4.6-1.047-1.967-1.57-4.233-1.57-6.8v0c0-2.433 0.517-4.6 1.55-6.5 1.033-1.9 2.467-3.4 4.3-4.5 1.833-1.1 3.917-1.65 6.25-1.65v0c2.367 0 4.45 0.517 6.25 1.55 1.8 1.033 3.207 2.473 4.22 4.32 1.02 1.853 1.53 3.997 1.53 6.43v0c0 0.4-0.017 0.823-0.05 1.27-0.033 0.453-0.083 0.93-0.15 1.43v0h-17.8c0.167 1.167 0.54 2.173 1.12 3.02 0.587 0.853 1.33 1.513 2.23 1.98 0.9 0.467 1.933 0.7 3.1 0.7v0c1.4 0 2.657-0.283 3.77-0.85 1.12-0.567 1.897-1.317 2.33-2.25v0l4.95 1.65c-1 2-2.483 3.573-4.45 4.72-1.967 1.153-4.167 1.73-6.6 1.73zM159.65-14.95h11.75c-0.033-1.033-0.317-1.967-0.85-2.8-0.533-0.833-1.233-1.493-2.1-1.98-0.867-0.48-1.833-0.72-2.9-0.72v0c-0.933 0-1.817 0.233-2.65 0.7-0.833 0.467-1.543 1.11-2.13 1.93-0.58 0.813-0.953 1.77-1.12 2.87zM181.55-6.4l4.95-1.65c0.233 0.933 0.64 1.65 1.22 2.15 0.587 0.5 1.23 0.84 1.93 1.02 0.7 0.187 1.367 0.28 2 0.28v0c1.3 0 2.323-0.26 3.07-0.78 0.753-0.513 1.13-1.17 1.13-1.97v0c0-0.667-0.25-1.183-0.75-1.55-0.5-0.367-1.143-0.66-1.93-0.88-0.78-0.213-1.587-0.437-2.42-0.67v0c-0.9-0.233-1.86-0.5-2.88-0.8-1.013-0.3-1.97-0.717-2.87-1.25-0.9-0.533-1.633-1.217-2.2-2.05-0.567-0.833-0.85-1.867-0.85-3.1v0c0-1.567 0.433-2.927 1.3-4.08 0.867-1.147 2.05-2.037 3.55-2.67 1.5-0.633 3.183-0.95 5.05-0.95v0c2.233 0 4.167 0.467 5.8 1.4 1.633 0.933 2.817 2.3 3.55 4.1v0l-4.95 1.6c-0.233-0.467-0.577-0.867-1.03-1.2-0.447-0.333-0.98-0.577-1.6-0.73-0.613-0.147-1.237-0.22-1.87-0.22v0c-1.067 0-1.967 0.217-2.7 0.65-0.733 0.433-1.1 1.05-1.1 1.85v0c0 0.4 0.123 0.75 0.37 1.05 0.253 0.3 0.597 0.54 1.03 0.72 0.433 0.187 0.95 0.353 1.55 0.5 0.6 0.153 1.233 0.33 1.9 0.53v0c1.067 0.3 2.123 0.623 3.17 0.97 1.053 0.353 2.023 0.797 2.91 1.33 0.88 0.533 1.577 1.233 2.09 2.1 0.52 0.867 0.813 1.967 0.88 3.3v0c0 1.433-0.417 2.74-1.25 3.92-0.833 1.187-2.027 2.12-3.58 2.8-1.547 0.687-3.387 1.03-5.52 1.03v0c-2.467 0-4.583-0.533-6.35-1.6-1.767-1.067-2.967-2.783-3.6-5.15z" fill="#636365" fill-rule="nonzero" stroke="none" stroke-width="1" stroke-linecap="butt" stroke-linejoin="miter" stroke-miterlimit="10" stroke-dasharray="" stroke-dashoffset="0" font-family="none" font-weight="none" font-size="none" text-anchor="none" style="mix-blend-mode: normal" data-fill-palette-color="primary" opacity="1"></path></g></svg></g></svg></g></svg></g></svg></g><g transform="matrix(1,0,0,1,344.3362925398341,0)"><svg viewBox="0 0 125.15596570278868 131.5664528002729" height="131.5664528002729" width="125.15596570278868"><g><svg xmlns="http://www.w3.org/2000/svg" xmlns:xlink="http://www.w3.org/1999/xlink" version="1.1" x="0" y="0" viewBox="3.98 2.3425 64.0375 67.3175" style="enable-background:new 0 0 72 72;" xml:space="preserve" height="131.5664528002729" width="125.15596570278868" class="icon-icon-0" data-fill-palette-color="accent" id="icon-0"><path d="M67.17 34.01C68.3 34.01 68.3 35.71 67.17 35.71H61.97C60.93 35.71 60.93 34.01 61.97 34.01zM57.71 11.89C58.47 11.13 59.7 12.36 58.84 13.12L55.15 16.71C54.39 17.47 53.26 16.33 54.02 15.58zM13.18 13.12C12.33 12.36 13.56 11.13 14.31 11.89L18 15.58C18.76 16.34 17.62 17.47 16.87 16.71zM35.21 3.19C35.21 2.06 36.82 2.06 36.82 3.19V8.3C36.82 9.43 35.21 9.43 35.21 8.3zM44.76 63.23V60.3H27.27V63.23zM44.76 58.69V56.89C44.76 56.32 44.29 55.85 43.72 55.85H36.82V58.69zM35.21 55.86H28.31C27.74 55.86 27.27 56.33 27.27 56.9V58.7H35.21zM27.93 64.94L29.82 67.97H42.21L44.1 64.94zM46.37 56.9V64.09C46.37 64.28 46.37 64.37 46.28 64.56L43.44 69.19C43.25 69.47 42.97 69.66 42.68 69.66H29.35A0.71 0.71 0 0 1 28.69 69.19L25.76 64.56C25.67 64.47 25.67 64.28 25.67 64.09V56.9C25.67 56.14 25.95 55.48 26.43 55.01 21.32 52.55 17.26 48.3 14.99 43.1 14.9 42.63 15.08 42.15 15.46 41.97L19.9 40.17C18.58 39.13 15.55 39.04 14.32 39.04A0.85 0.85 0 0 1 13.47 38.19V30.53C13.47 30.06 13.85 29.68 14.32 29.68 21.41 29.68 22.36 27.32 17.35 22.3 17.07 22.02 17.07 21.45 17.35 21.17L22.83 15.69C23.11 15.41 23.68 15.41 23.96 15.69 28.88 20.99 31.34 19.28 31.34 12.66 31.34 12.19 31.72 11.81 32.19 11.81H39.85C40.32 11.81 40.7 12.19 40.7 12.66 40.7 19.75 43.06 20.7 48.08 15.69 48.36 15.41 48.93 15.41 49.21 15.78L54.69 21.17C54.97 21.45 54.97 22.02 54.69 22.3 53.74 23.15 51.76 25.42 51.57 27.03L55.92 25.23C56.39 25.04 56.87 25.23 57.05 25.7 59.98 32.89 59.13 41.02 54.59 47.45A23.2 23.2 0 0 1 45.61 55.01C46.08 55.48 46.37 56.14 46.37 56.9M28.87 54.16H35.21V44.33C33.13 44.14 31.24 43.38 29.54 41.97 28.78 41.31 29.82 39.98 30.67 40.74 33.79 43.39 38.52 43.29 41.54 40.55 43.05 39.23 44 37.34 44.28 35.25 44.37 34.21 46.08 34.4 45.89 35.44 45.61 37.99 44.47 40.17 42.67 41.78 40.97 43.29 38.89 44.14 36.81 44.33V54.16H43.15C47.41 52.65 51 49.81 53.55 46.03 57.24 40.45 58.09 33.36 55.82 27.02L40.5 33.35C40.59 33.73 40.59 34.01 40.59 34.39 40.59 36.94 38.51 38.93 35.96 38.93 34.35 38.93 32.93 38.17 32.08 36.85L16.86 43.19A21.17 21.17 0 0 0 28.87 54.16M35.96 29.76C37.66 29.76 39.08 30.61 39.93 31.84L43.33 30.42A8.5 8.5 0 0 0 40.59 27.39C37.37 25.22 32.93 25.69 30.09 28.43 28.58 29.94 27.73 32.02 27.73 34.39 27.73 35.15 27.82 36 28.01 36.75L31.51 35.33C31.42 35.05 31.42 34.67 31.42 34.38 31.43 31.84 33.41 29.76 35.96 29.76M35.96 31.37C34.35 31.37 33.03 32.69 33.03 34.4A2.94 2.94 0 0 0 35.96 37.33C37.66 37.33 38.99 36.01 38.99 34.4 38.99 32.69 37.67 31.37 35.96 31.37M44.85 29.76L49.86 27.68C49.58 25.51 51.56 23.14 52.89 21.72L48.63 17.46C43.05 22.66 39.27 21.05 38.98 13.49H32.93C32.74 21.05 28.96 22.66 23.38 17.46L19.12 21.72C24.32 27.3 22.71 31.08 15.15 31.37V37.42C17.14 37.42 20.16 37.8 21.49 39.5L26.5 37.42C26.22 36.38 26.03 35.43 26.03 34.39 26.03 31.55 27.16 29.09 28.96 27.3 32.27 23.99 37.56 23.42 41.54 26.07 42.96 27.02 44.1 28.25 44.85 29.76M46.08 49.33C45.8 49.71 45.32 49.71 44.95 49.42 44.57 49.04 44.57 48.57 44.86 48.19L45.71 47.34C45.99 46.96 46.18 46.68 46.47 46.39 46.75 46.01 47.32 46.01 47.7 46.3 47.98 46.58 48.08 47.15 47.79 47.43 47.51 47.81 47.22 48.09 46.94 48.38zM50.15 44.42C49.87 44.8 49.39 44.89 49.02 44.61S48.55 43.85 48.74 43.48C49.87 41.87 50.73 40.27 51.2 38.66 51.77 37.05 51.96 35.35 51.86 33.46 51.86 32.99 52.14 32.61 52.62 32.61 53.09 32.61 53.47 32.89 53.57 33.37 53.66 35.45 53.38 37.34 52.81 39.14 52.23 41.01 51.38 42.71 50.15 44.42M4.76 35.72C3.72 35.72 3.72 34.02 4.76 34.02H9.96C11.09 34.02 11.09 35.72 9.96 35.72z" fill="#89939e" data-fill-palette-color="accent"></path></svg></g></svg></g></svg></g></svg></g></svg></g><defs></defs></svg><rect width="375.07953" height="242.61381" fill="none" stroke="none" visibility="hidden"></rect></g></svg></g></svg>